<svg width="3762" height="1369" xmlns="http://www.w3.org/2000/svg" xmlns:xlink="http://www.w3.org/1999/xlink" xml:space="preserve" overflow="hidden"><defs><filter id="fx0" x="-10%" y="-10%" width="120%" height="120%" filterUnits="userSpaceOnUse" primitiveUnits="userSpaceOnUse"><feComponentTransfer color-interpolation-filters="sRGB"><feFuncR type="discrete" tableValues="0 0"/><feFuncG type="discrete" tableValues="0 0"/><feFuncB type="discrete" tableValues="0 0"/><feFuncA type="linear" slope="0.14902" intercept="0"/></feComponentTransfer><feGaussianBlur stdDeviation="7.63889 7.63889"/></filter><filter id="fx1" x="-10%" y="-10%" width="120%" height="120%" filterUnits="userSpaceOnUse" primitiveUnits="userSpaceOnUse"><feComponentTransfer color-interpolation-filters="sRGB"><feFuncR type="discrete" tableValues="0 0"/><feFuncG type="discrete" tableValues="0 0"/><feFuncB type="discrete" tableValues="0 0"/><feFuncA type="linear" slope="0.14902" intercept="0"/></feComponentTransfer><feGaussianBlur stdDeviation="7.63889 7.63889"/></filter><filter id="fx2" x="-10%" y="-10%" width="120%" height="120%" filterUnits="userSpaceOnUse" primitiveUnits="userSpaceOnUse"><feComponentTransfer color-interpolation-filters="sRGB"><feFuncR type="discrete" tableValues="0 0"/><feFuncG type="discrete" tableValues="0 0"/><feFuncB type="discrete" tableValues="0 0"/><feFuncA type="linear" slope="0.14902" intercept="0"/></feComponentTransfer><feGaussianBlur stdDeviation="7.63889 7.63889"/></filter><clipPath id="clip3"><rect x="320" y="164" width="3762" height="1369"/></clipPath><clipPath id="clip4"><rect x="-7" y="-7" width="1570" height="526"/></clipPath><clipPath id="clip5"><rect x="0" y="0" width="1558" height="512"/></clipPath><clipPath id="clip6"><rect x="2016" y="517" width="69" height="70"/></clipPath><clipPath id="clip7"><rect x="2016" y="517" width="69" height="70"/></clipPath><clipPath id="clip8"><rect x="2016" y="517" width="69" height="70"/></clipPath><clipPath id="clip9"><rect x="2435" y="511" width="68" height="68"/></clipPath><clipPath id="clip10"><rect x="2435" y="511" width="68" height="68"/></clipPath><clipPath id="clip11"><rect x="2435" y="511" width="68" height="68"/></clipPath><clipPath id="clip12"><rect x="-7" y="-7" width="1574" height="487"/></clipPath><clipPath id="clip13"><rect x="0" y="0" width="1561" height="474"/></clipPath><clipPath id="clip14"><rect x="3063" y="1200" width="81" height="81"/></clipPath><clipPath id="clip15"><rect x="3063" y="1200" width="81" height="81"/></clipPath><clipPath id="clip16"><rect x="3063" y="1200" width="81" height="81"/></clipPath><clipPath id="clip17"><rect x="3053" y="1336" width="98" height="86"/></clipPath><clipPath id="clip18"><rect x="3053" y="1336" width="98" height="86"/></clipPath><clipPath id="clip19"><rect x="3053" y="1336" width="98" height="86"/></clipPath><clipPath id="clip20"><rect x="542" y="657" width="245" height="244"/></clipPath><clipPath id="clip21"><rect x="542" y="657" width="245" height="244"/></clipPath><clipPath id="clip22"><rect x="542" y="657" width="245" height="244"/></clipPath><clipPath id="clip23"><rect x="1499" y="666" width="245" height="245"/></clipPath><clipPath id="clip24"><rect x="1499" y="666" width="245" height="245"/></clipPath><clipPath id="clip25"><rect x="1499" y="666" width="245" height="245"/></clipPath><clipPath id="clip26"><rect x="3614" y="658" width="244" height="243"/></clipPath><clipPath id="clip27"><rect x="3614" y="658" width="244" height="243"/></clipPath><clipPath id="clip28"><rect x="3614" y="658" width="244" height="243"/></clipPath><clipPath id="clip29"><rect x="2646" y="650" width="254" height="254"/></clipPath><clipPath id="clip30"><rect x="2646" y="650" width="254" height="254"/></clipPath><clipPath id="clip31"><rect x="2646" y="650" width="254" height="254"/></clipPath><clipPath id="clip32"><rect x="1540" y="343" width="80" height="80"/></clipPath><clipPath id="clip33"><rect x="1540" y="343" width="80" height="80"/></clipPath><clipPath id="clip34"><rect x="1540" y="343" width="80" height="80"/></clipPath><clipPath id="clip35"><rect x="2015" y="337" width="80" height="79"/></clipPath><clipPath id="clip36"><rect x="2015" y="337" width="80" height="79"/></clipPath><clipPath id="clip37"><rect x="2015" y="337" width="80" height="79"/></clipPath><clipPath id="clip38"><rect x="2596" y="1202" width="80" height="80"/></clipPath><clipPath id="clip39"><rect x="2596" y="1202" width="80" height="80"/></clipPath><clipPath id="clip40"><rect x="2596" y="1202" width="80" height="80"/></clipPath><clipPath id="clip41"><rect x="1546" y="504" width="80" height="79"/></clipPath><clipPath id="clip42"><rect x="1546" y="504" width="80" height="79"/></clipPath><clipPath id="clip43"><rect x="1546" y="504" width="80" height="79"/></clipPath><clipPath id="clip44"><rect x="2590" y="1334" width="96" height="85"/></clipPath><clipPath id="clip45"><rect x="2590" y="1334" width="96" height="85"/></clipPath><clipPath id="clip46"><rect x="2590" y="1334" width="96" height="85"/></clipPath><clipPath id="clip47"><rect x="-7" y="-7" width="1570" height="487"/></clipPath><clipPath id="clip48"><rect x="0" y="0" width="1557" height="474"/></clipPath><clipPath id="clip49"><rect x="502" y="1196" width="80" height="79"/></clipPath><clipPath id="clip50"><rect x="502" y="1196" width="80" height="79"/></clipPath><clipPath id="clip51"><rect x="502" y="1196" width="80" height="79"/></clipPath><clipPath id="clip52"><rect x="974" y="1197" width="81" height="82"/></clipPath><clipPath id="clip53"><rect x="974" y="1197" width="81" height="82"/></clipPath><clipPath id="clip54"><rect x="974" y="1197" width="81" height="82"/></clipPath><clipPath id="clip55"><rect x="500" y="1353" width="85" height="83"/></clipPath><clipPath id="clip56"><rect x="500" y="1353" width="85" height="83"/></clipPath><clipPath id="clip57"><rect x="500" y="1353" width="85" height="83"/></clipPath><clipPath id="clip58"><rect x="974" y="1354" width="90" height="90"/></clipPath><clipPath id="clip59"><rect x="974" y="1354" width="90" height="90"/></clipPath><clipPath id="clip60"><rect x="974" y="1354" width="90" height="90"/></clipPath></defs><g clip-path="url(#clip3)" transform="translate(-320 -164)"><g clip-path="url(#clip4)" filter="url(#fx0)" transform="translate(1437 164)"><g clip-path="url(#clip5)"><path d="M24.1982 101.05C24.1982 58.3294 58.83 23.6976 101.55 23.6976L1456.45 23.6976C1499.17 23.6976 1533.8 58.3294 1533.8 101.05L1533.8 410.445C1533.8 453.166 1499.17 487.798 1456.45 487.798L101.55 487.798C58.83 487.798 24.1982 453.166 24.1982 410.445Z" fill="#FFFFFF" fill-rule="evenodd"/></g></g><path d="M1460 249.835C1460 207.953 1493.95 174 1535.84 174L2864.16 174C2906.05 174 2940 207.953 2940 249.835L2940 553.165C2940 595.047 2906.05 629 2864.16 629L1535.84 629C1493.95 629 1460 595.047 1460 553.165Z" fill="#FFFFFF" fill-rule="evenodd"/><rect x="2424" y="228" width="598" height="256" fill="#FF0000"/><text fill="#FFFFFF" font-family="Nunito,Nunito_MSFontService,sans-serif" font-weight="400" font-size="48" transform="matrix(1 0 0 1 2457.43 304)">Quality Gate<tspan font-weight="700" font-size="61" x="0" y="69">Failed</tspan><tspan font-size="48" x="0" y="131">1 condition failed</tspan></text><path d="M0 0 863.466 3.36424" stroke="#D9D9D9" stroke-width="1.14583" stroke-miterlimit="8" fill="none" fill-rule="evenodd" transform="matrix(1 0 0 -1 1541.5 303.864)"/><path d="M0 0 863.466 3.36424" stroke="#D9D9D9" stroke-width="1.14583" stroke-miterlimit="8" fill="none" fill-rule="evenodd" transform="matrix(1 0 0 -1 1541.5 471.864)"/><text font-family="Nunito,Nunito_MSFontService,sans-serif" font-weight="700" font-size="64" transform="matrix(1 0 0 1 1627.8 407)">35<tspan font-size="64" x="486.252" y="-2">2</tspan><tspan font-weight="400" font-size="43" x="554.169" y="-8">faults</tspan><tspan font-size="64" x="3.04773" y="160">3 </tspan><tspan font-weight="400" font-size="43" x="96.7379" y="-36">%</tspan><tspan font-weight="400" font-size="43" x="96.7379" y="15">risk</tspan><tspan font-weight="400" font-size="43" x="96.4467" y="129">added</tspan><tspan font-weight="400" font-size="43" x="96.4467" y="180">states</tspan><tspan font-size="64" x="487.819" y="168">1 </tspan><tspan font-weight="400" font-size="43" x="551.013" y="136">freq. </tspan><tspan font-weight="400" font-size="43" x="551.013" y="187">change</tspan></text><g clip-path="url(#clip6)"><g clip-path="url(#clip7)"><g clip-path="url(#clip8)"><path d="M5.03123 43.8436 58.7648 43.8436 52.3823 37.4611C51.5705 36.5898 51.6186 35.2254 52.4899 34.4136 53.318 33.642 54.6017 33.642 55.4298 34.4136L65.4922 44.4761C66.333 45.3179 66.333 46.6817 65.4922 47.5236L55.4298 57.586C54.5879 58.4268 53.2242 58.4268 52.3823 57.586 51.5415 56.7442 51.5415 55.3804 52.3823 54.5385L58.7648 48.1561 5.03123 48.1561C3.84037 48.1561 2.87499 47.1907 2.87499 45.9998 2.87499 44.8089 3.84037 43.8436 5.03123 43.8436Z" transform="matrix(-1 0 0 1.00001 2085 517)"/><path d="M63.9685 20.8437 10.235 20.8437 16.6174 14.4612C17.4887 13.6494 17.5369 12.285 16.725 11.4137 15.9132 10.5424 14.5487 10.4943 13.6775 11.3061 13.6404 11.3407 13.6045 11.3766 13.5699 11.4137L3.50749 21.4762C2.66669 22.318 2.66669 23.6818 3.50749 24.5237L13.5699 34.5861C14.4118 35.4269 15.7756 35.4269 16.6174 34.5861 17.4582 33.7443 17.4582 32.3805 16.6174 31.5386L10.235 25.1562 63.9685 25.1562C65.1594 25.1562 66.1247 24.1908 66.1247 22.9999 66.1247 21.809 65.1594 20.8437 63.9685 20.8437Z" transform="matrix(-1 0 0 1.00001 2085 517)"/></g></g></g><text font-family="Nunito,Nunito_MSFontService,sans-serif" font-weight="700" font-size="64" transform="matrix(1 0 0 1 2545.97 565)">4 <tspan font-weight="400" font-size="43" x="72.9216" y="-29">recurring</tspan><tspan font-weight="400" font-size="43" x="72.9216" y="22">states</tspan></text><g clip-path="url(#clip9)"><g clip-path="url(#clip10)"><g clip-path="url(#clip11)"><path d="M14.5865 40.2 27.9865 26.8 20.5188 26.8C22.9615 22.0542 27.9167 18.774 33.6396 18.774 37.3386 18.774 40.7584 20.1698 43.3406 22.4729L56.95 22.4729C52.8323 13.6792 43.899 7.67709 33.6396 7.67709 21.7052 7.67709 11.6552 15.7729 8.72396 26.8L1.18646 26.8 14.5865 40.2Z" transform="matrix(1 0 0 -1 2435 579)"/><path d="M66.0229 40.2 52.6229 26.8 39.2229 40.2 46.7604 40.2C44.3177 44.9459 39.3625 48.2261 33.6396 48.2261 29.9406 48.2261 26.5208 46.8302 23.9386 44.5271L10.2594 44.5271C14.4469 53.3209 23.3104 59.3229 33.6396 59.3229 45.574 59.3229 55.624 51.2271 58.5552 40.2L66.0229 40.2Z" transform="matrix(1 0 0 -1 2435 579)"/></g></g></g><g clip-path="url(#clip12)" filter="url(#fx1)" transform="translate(2485 1060)"><g clip-path="url(#clip13)"><path d="M24.1985 94.7586C24.1985 55.5128 56.0134 23.6978 95.2591 23.6978L1465.8 23.6978C1505.04 23.6978 1536.86 55.5128 1536.86 94.7586L1536.86 378.997C1536.86 418.243 1505.04 450.058 1465.8 450.058L95.2591 450.058C56.0134 450.058 24.1985 418.243 24.1985 378.997Z" fill="#FFFFFF" fill-rule="evenodd"/></g></g><path d="M2508 1139.67C2508 1101.19 2539.19 1070 2577.67 1070L3921.33 1070C3959.81 1070 3991 1101.19 3991 1139.67L3991 1418.33C3991 1456.81 3959.81 1488 3921.33 1488L2577.67 1488C2539.19 1488 2508 1456.81 2508 1418.33Z" fill="#FFFFFF" fill-rule="evenodd"/><text fill="#7F7F7F" font-family="Nunito,Nunito_MSFontService,sans-serif" font-style="italic" font-weight="400" font-size="61" transform="matrix(1 0 0 1 2596.82 1147)">INCIDENT DETECTION<tspan fill="#000000" font-style="normal" font-weight="700" font-size="64" x="97.1494" y="113">0</tspan><tspan fill="#000000" font-style="normal" font-size="43" x="173.067" y="109">incidents</tspan></text><g clip-path="url(#clip14)"><g clip-path="url(#clip15)"><g clip-path="url(#clip16)"><path d="M3087.33 1235 3120.67 1235 3120.67 1236.67 3087.33 1236.67Z"/><path d="M3087.33 1228.33 3103.17 1228.33 3103.17 1230 3087.33 1230Z"/><path d="M3087.33 1241.67 3120.67 1241.67 3120.67 1243.33 3087.33 1243.33Z"/><path d="M3087.33 1248.33 3120.67 1248.33 3120.67 1250 3087.33 1250Z"/><path d="M3087.33 1255 3120.67 1255 3120.67 1256.67 3087.33 1256.67Z"/><path d="M3087.33 1261.67 3120.67 1261.67 3120.67 1263.33 3087.33 1263.33Z"/><path d="M3079 1206.67 3079 1273.33 3129 1273.33 3129 1224.66 3111.01 1206.67ZM3111.51 1209.53 3126.14 1224.15C3126.14 1224.16 3126.14 1224.16 3126.14 1224.16 3126.14 1224.17 3126.14 1224.17 3126.13 1224.17L3111.5 1224.17 3111.5 1209.53C3111.5 1209.53 3111.5 1209.52 3111.51 1209.52 3111.51 1209.52 3111.51 1209.52 3111.51 1209.53ZM3080.67 1271.67 3080.67 1208.33 3109.83 1208.33 3109.83 1225.83 3127.33 1225.83 3127.33 1271.67Z"/></g></g></g><text font-family="Nunito,Nunito_MSFontService,sans-serif" font-weight="700" font-size="64" transform="matrix(1 0 0 1 3147.18 1261)">6K<tspan font-weight="400" font-size="43" x="95.6213" y="-13">logs</tspan><tspan font-size="64" x="-448.961" y="134">0</tspan></text><g clip-path="url(#clip17)"><g clip-path="url(#clip18)"><g clip-path="url(#clip19)"><path d="M42.4867 8.85416C23.9144 8.85367 8.85823 23.9091 8.8577 42.4814 8.85717 61.0537 23.9126 76.1098 42.4849 76.1103 61.0572 76.1108 76.1133 61.0554 76.1139 42.4831 76.1139 42.482 76.1139 42.4807 76.1139 42.4796 76.1207 23.9156 61.0772 8.86097 42.5132 8.85416 42.5044 8.85415 42.4955 8.85415 42.4867 8.85416ZM57.5122 53.2746 53.279 57.5077 42.4867 46.7136 31.6979 57.506 27.4647 53.2728 38.25 42.4796 27.4603 31.6873 31.6979 27.4541 42.4867 38.25 53.279 27.4541 57.5122 31.6873 46.7198 42.4796Z" transform="matrix(1.12942 0 0 1 3054 1336)"/></g></g></g><text font-family="Nunito,Nunito_MSFontService,sans-serif" font-weight="400" font-size="43" transform="matrix(1 0 0 1 2770.54 1366)">semantic<tspan font-size="43" x="0" y="51">threats</tspan><tspan font-weight="700" font-size="64" x="379.705" y="32">12</tspan><tspan font-size="43" x="474.93" y="-1">level </tspan><tspan font-size="43" x="474.93" y="50">threats</tspan></text><path d="M0 0 854.297 6.12074" stroke="#D9D9D9" stroke-width="1.14583" stroke-miterlimit="8" fill="none" fill-rule="evenodd" transform="matrix(1 0 0 -1 2598.5 1310.62)"/><path d="M0 0 854.297 6.12074" stroke="#D9D9D9" stroke-width="1.14583" stroke-miterlimit="8" fill="none" fill-rule="evenodd" transform="matrix(1 0 0 -1 2595.5 1177.62)"/><rect x="3481" y="1147" width="598" height="256" fill="#00B050"/><text fill="#FFFFFF" font-family="Nunito,Nunito_MSFontService,sans-serif" font-weight="400" font-size="48" transform="matrix(1 0 0 1 3514.21 1224)">Monitoring<tspan font-weight="700" font-size="61" x="0" y="69">Passed</tspan><tspan font-size="48" x="0" y="131">No incidents</tspan></text><g clip-path="url(#clip20)"><g clip-path="url(#clip21)"><g clip-path="url(#clip22)"><path d="M157.444 138.206C168.075 142.003 178.2 146.306 186.553 153.141 190.097 155.925 192.122 159.975 192.122 164.531L196.678 203.766C196.931 205.538 196.172 207.309 194.653 208.322L194.653 208.322C190.35 211.106 185.794 213.384 180.984 214.903L180.984 223.003 187.819 223.003C192.122 221.231 196.425 219.206 200.222 216.675L200.222 216.675C204.778 213.638 207.309 208.069 206.55 202.5L202.5 164.278C202.247 156.938 198.956 150.103 193.134 145.547 183.769 137.7 172.631 132.891 160.988 128.841L148.584 123.778C147.572 123.272 147.066 122.513 147.066 121.5L147.066 115.425C156.684 107.831 162.253 96.1875 162.253 83.7844L162.253 74.6719C163.772 75.6844 165.544 75.9375 167.316 76.1906L163.013 63.5344C162.506 61.7625 162 59.9906 161.747 58.2188 159.722 43.7906 151.116 33.6656 139.219 27.3375 138.206 26.8313 136.941 26.8313 135.928 27.5906L133.65 29.3625 131.119 25.8188C130.359 24.8063 129.347 23.7938 128.081 23.5406 125.803 23.0344 123.525 22.7813 121.247 22.7813 101.25 22.7813 84.5438 38.475 81 58.9781L81 60.75 81 60.75 81 65.0531C81 70.6219 79.9875 75.9375 77.7094 81L73.4063 91.125C73.4063 91.125 76.4438 90.3656 81.5063 88.8469 82.7719 99.225 88.0875 108.591 96.1875 114.919L96.1875 121.247C96.1875 122.259 95.6813 123.272 94.6688 123.525L82.2656 128.588C70.6219 132.638 59.4844 137.447 50.1188 145.294 44.2969 149.85 40.7531 156.684 40.5 164.025L36.1969 202.5C35.4375 208.069 37.9688 213.638 42.525 216.675 46.3219 219.206 50.625 221.231 54.9281 223.003L62.0156 223.003 62.0156 215.156C57.2063 213.384 52.65 211.359 48.3469 208.575 46.8281 207.563 46.0688 205.791 46.3219 204.019L50.625 165.038 50.625 164.531C50.625 159.975 52.9031 155.925 56.4469 153.141 64.8 146.306 74.925 142.003 85.5563 138.206L89.6063 136.941C96.9469 141.497 108.591 144.281 121.5 144.281 134.409 144.281 146.053 141.497 153.647 136.941L157.444 138.206ZM91.125 85.8094C108.338 79.9875 133.144 69.8625 144.281 55.6875 146.559 59.2313 149.091 62.5219 151.875 65.8125L151.875 83.5313C151.875 100.238 138.206 113.906 121.5 113.906 105.553 113.906 92.3906 101.756 91.125 85.8094ZM101.25 131.372C104.288 129.094 106.313 125.297 106.313 121.247L106.313 120.994C115.931 125.044 127.069 125.044 136.688 120.994L136.688 121.247C136.688 125.044 138.459 128.841 141.497 131.372 134.916 133.397 128.081 134.409 121.247 134.156 114.666 134.156 107.831 133.144 101.25 131.372Z" fill="#012970" transform="matrix(1.00412 0 0 1 542 658)"/><path d="M176.175 165.291C176.175 161.747 173.391 158.963 169.847 158.963L169.847 158.963 73.4063 158.963C69.8625 158.963 67.0781 161.747 67.0781 165.291L67.0781 165.291 67.0781 228.319 47.8406 228.319 47.8406 231.609C47.8406 235.153 50.625 237.938 54.1688 237.938L189.084 237.938C192.628 237.938 195.413 235.153 195.413 231.609L195.413 228.319 176.175 228.319 176.175 165.291ZM108.338 207.056 104.794 210.6 90.6188 196.425 104.794 182.25 108.338 185.794 97.7063 196.425 108.338 207.056ZM117.956 212.372 113.4 210.347 125.297 181.744 129.853 183.769 117.956 212.372ZM138.206 210.853 134.663 207.309 145.294 196.678 134.663 186.047 138.206 182.503 152.381 196.678 138.206 210.853Z" fill="#012970" transform="matrix(1.00412 0 0 1 542 658)"/></g></g></g><g clip-path="url(#clip23)"><g clip-path="url(#clip24)"><g clip-path="url(#clip25)"><path d="M1540.94 877.45C1539.16 879.229 1536.87 879.737 1534.58 878.721 1532.3 877.704 1531.03 875.671 1531.03 873.383 1531.03 871.096 1532.55 868.808 1534.58 868.046 1536.87 867.029 1539.16 867.537 1540.94 869.317 1543.23 871.35 1543.23 875.162 1540.94 877.45ZM1720.38 709.954 1699.79 730.542 1683.53 726.221 1679.46 710.208 1700.05 689.621C1687.85 685.046 1674.12 687.842 1664.46 696.483 1654.8 705.379 1650.99 718.596 1654.3 731.304L1524.67 860.929C1520.1 865.25 1518.32 871.858 1519.84 877.958 1521.37 884.058 1526.2 888.887 1532.3 890.412 1538.4 891.937 1544.75 890.158 1549.33 885.583L1678.95 755.958C1691.66 759.262 1704.88 755.45 1713.77 745.792 1722.41 736.133 1725.21 722.154 1720.38 709.954Z" fill="#012970"/><path d="M1719.36 860.929 1653.79 795.354 1627.35 821.787 1690.9 885.329 1693.18 887.617 1693.44 887.362C1700.81 892.7 1710.98 891.683 1717.33 885.329 1723.68 878.721 1724.45 868.554 1719.36 860.929L1719.36 860.929Z" fill="#012970"/><path d="M1556.44 717.325 1556.7 717.071 1550.09 704.871 1528.23 687.333 1519.33 696.229 1536.87 718.087 1549.07 724.696 1549.33 724.442 1597.87 772.987 1604.99 765.871Z" fill="#012970"/></g></g></g><g clip-path="url(#clip26)"><g clip-path="url(#clip27)"><g clip-path="url(#clip28)"><path d="M121 151.25C104.363 151.25 90.75 137.637 90.75 121 90.75 104.363 104.363 90.75 121 90.75 137.637 90.75 151.25 104.363 151.25 121 151.25 137.637 137.637 151.25 121 151.25ZM189.062 102.094C187.55 96.5479 185.281 91.2542 182.508 86.4646L188.81 67.5583 174.442 53.1896 155.535 59.4917C150.494 56.7188 145.2 54.45 139.654 52.9375L131.083 35.2917 110.917 35.2917 102.094 52.9375C96.5479 54.45 91.2542 56.7188 86.4646 59.4917L67.5583 53.1896 53.1896 67.5583 59.4917 86.4646C56.7188 91.5062 54.45 96.8 52.9375 102.346L35.2917 110.917 35.2917 131.083 52.9375 139.906C54.45 145.452 56.7188 150.746 59.4917 155.535L53.1896 174.442 67.5583 188.81 86.4646 182.508C91.5062 185.281 96.8 187.55 102.346 189.062L111.169 206.708 131.335 206.708 140.158 189.062C145.704 187.55 150.998 185.281 155.787 182.508L174.694 188.81 189.062 174.442 182.76 155.535C185.533 150.494 187.802 145.2 189.315 139.654L206.96 130.831 206.96 110.665 189.062 102.094Z" fill="#012970" transform="matrix(6.12323e-17 1 -1.00413 6.14854e-17 3858 658)"/></g></g></g><g clip-path="url(#clip29)"><g clip-path="url(#clip30)"><g clip-path="url(#clip31)"><path d="M2773.5 702.708C2778.59 702.708 2782.72 698.579 2782.72 693.484 2782.72 688.39 2778.59 684.26 2773.5 684.26L2773.24 684.26C2768.22 684.35 2764.22 688.47 2764.28 693.484 2764.28 698.575 2768.41 702.7 2773.5 702.708ZM2770.62 690.691C2771.33 689.96 2772.31 689.543 2773.33 689.531L2773.5 689.531C2775.68 689.531 2777.45 691.301 2777.45 693.485 2777.45 695.668 2775.68 697.438 2773.5 697.438 2771.32 697.438 2769.55 695.668 2769.55 693.484 2769.55 693.471 2769.55 693.458 2769.55 693.445 2769.52 692.423 2769.91 691.434 2770.62 690.699Z" fill="#012970"/><path d="M2770.87 747.505 2826.21 747.505 2826.21 752.776 2770.87 752.776Z" fill="#012970"/><path d="M2770.87 779.13 2826.21 779.13 2826.21 784.401 2770.87 784.401Z" fill="#012970"/><path d="M2770.87 810.755 2826.21 810.755 2826.21 816.026 2770.87 816.026Z" fill="#012970"/><path d="M2770.87 842.38 2826.21 842.38 2826.21 847.651 2770.87 847.651Z" fill="#012970"/><path d="M2743.97 737.741 2735.29 746.419 2726.61 737.741 2722.88 741.467 2731.56 750.146 2722.88 758.824 2726.61 762.551 2735.29 753.872 2743.97 762.551 2747.69 758.824 2739.02 750.146 2747.69 741.467 2743.97 737.741Z" fill="#012970"/><path d="M2743.97 769.366 2735.29 778.044 2726.61 769.366 2722.88 773.092 2731.56 781.771 2722.88 790.449 2726.61 794.176 2735.29 785.497 2743.97 794.176 2747.69 790.449 2739.02 781.771 2747.69 773.092 2743.97 769.366Z" fill="#012970"/><path d="M2726.06 823.938 2747.15 823.938 2747.15 802.854 2726.06 802.854ZM2731.33 808.125 2741.87 808.125 2741.87 818.667 2731.33 818.667Z" fill="#012970"/><path d="M2726.06 855.563 2747.15 855.563 2747.15 834.479 2726.06 834.479ZM2731.33 839.75 2741.87 839.75 2741.87 850.292 2731.33 850.292Z" fill="#012970"/><path d="M2852.56 700.018C2852.56 694.196 2847.84 689.476 2842.02 689.476L2802.49 689.476 2802.49 684.205C2802.48 676.931 2796.59 671.037 2789.31 671.028L2757.69 671.028C2750.41 671.037 2744.52 676.931 2744.51 684.205L2744.51 689.476 2704.98 689.476C2699.16 689.476 2694.44 694.196 2694.44 700.018L2694.44 871.375C2694.44 877.197 2699.16 881.917 2704.98 881.917L2842.02 881.917C2847.84 881.917 2852.56 877.197 2852.56 871.375ZM2739.24 694.747 2749.78 694.747 2749.78 684.205C2749.78 679.839 2753.32 676.299 2757.69 676.299L2789.31 676.299C2793.68 676.299 2797.22 679.839 2797.22 684.205L2797.22 694.747 2807.76 694.747 2807.76 715.885 2739.24 715.885ZM2842.02 876.646 2704.98 876.646C2702.07 876.646 2699.71 874.286 2699.71 871.375L2699.71 700.018C2699.71 697.107 2702.07 694.747 2704.98 694.747L2733.97 694.747 2733.97 721.156 2813.03 721.156 2813.03 694.747 2842.02 694.747C2844.93 694.747 2847.29 697.107 2847.29 700.018L2847.29 871.375C2847.29 874.286 2844.93 876.646 2842.02 876.646Z" fill="#012970"/></g></g></g><text fill="#7F7F7F" font-family="Nunito,Nunito_MSFontService,sans-serif" font-style="italic" font-weight="400" font-size="41" transform="matrix(1 0 0 1 600.83 988)">Code<tspan font-size="41" x="3069.5" y="3">Deploy</tspan><tspan font-size="41" x="969.86" y="12">Build</tspan><tspan font-size="41" x="2100.21" y="12">Verify</tspan></text><path d="M0 0 3760.46 23.0408" stroke="#4472C4" stroke-width="1.14583" stroke-miterlimit="8" fill="none" fill-rule="evenodd" transform="matrix(1 0 0 -1 320.5 931.541)"/><g clip-path="url(#clip32)"><g clip-path="url(#clip33)"><g clip-path="url(#clip34)"><path d="M1614.56 408.833 1582.38 352.875C1581.15 350.653 1577.94 350.653 1576.7 352.875L1544.44 408.833C1543.21 411.055 1544.77 413.771 1547.32 413.771L1579.5 413.771 1611.68 413.771C1614.23 413.771 1615.79 411.055 1614.56 408.833ZM1577.03 366.042 1581.97 366.042 1581.97 394.844 1577.03 394.844 1577.03 366.042ZM1579.5 406.365C1577.2 406.365 1575.39 404.554 1575.39 402.25 1575.39 399.946 1577.2 398.136 1579.5 398.136 1581.8 398.136 1583.61 399.946 1583.61 402.25 1583.61 404.554 1581.8 406.365 1579.5 406.365Z" stroke="#FF0000" stroke-width="0.822991"/></g></g></g><g clip-path="url(#clip35)"><g clip-path="url(#clip36)"><g clip-path="url(#clip37)"><path d="M73.6125 65 41.8438 9.75C40.625 7.55625 37.4563 7.55625 36.2375 9.75L4.3875 65C3.16875 67.1938 4.7125 69.875 7.23125 69.875L39 69.875 70.7688 69.875C73.2875 69.875 74.8313 67.1938 73.6125 65ZM36.5625 22.75 41.4375 22.75 41.4375 51.1875 36.5625 51.1875 36.5625 22.75ZM39 62.5625C36.725 62.5625 34.9375 60.775 34.9375 58.5 34.9375 56.225 36.725 54.4375 39 54.4375 41.275 54.4375 43.0625 56.225 43.0625 58.5 43.0625 60.775 41.275 62.5625 39 62.5625Z" stroke="#FF0000" stroke-width="0.812574" transform="matrix(1.01282 0 0 1 2015 338)"/></g></g></g><g clip-path="url(#clip38)"><g clip-path="url(#clip39)"><g clip-path="url(#clip40)"><path d="M2670.56 1267.83 2638.38 1211.88C2637.15 1209.65 2633.94 1209.65 2632.7 1211.88L2600.44 1267.83C2599.21 1270.06 2600.77 1272.77 2603.32 1272.77L2635.5 1272.77 2667.68 1272.77C2670.23 1272.77 2671.79 1270.06 2670.56 1267.83ZM2633.03 1225.04 2637.97 1225.04 2637.97 1253.84 2633.03 1253.84 2633.03 1225.04ZM2635.5 1265.36C2633.2 1265.36 2631.39 1263.55 2631.39 1261.25 2631.39 1258.95 2633.2 1257.14 2635.5 1257.14 2637.8 1257.14 2639.61 1258.95 2639.61 1261.25 2639.61 1263.55 2637.8 1265.36 2635.5 1265.36Z"/></g></g></g><g clip-path="url(#clip41)"><g clip-path="url(#clip42)"><g clip-path="url(#clip43)"><path d="M39 8.125C21.9433 8.12007 8.11207 21.9433 8.10713 39 8.1022 56.0568 21.9254 69.8879 38.9821 69.8929 56.0389 69.8979 69.8701 56.0746 69.875 39.0179 69.875 39.0146 69.875 39.0114 69.875 39.0081 69.884 21.9608 56.0717 8.13394 39.0244 8.125 39.0163 8.125 39.0081 8.125 39 8.125ZM39 68.2671C22.8408 68.272 9.73709 55.1763 9.73213 39.0171 9.72717 22.8578 22.8229 9.75415 38.9821 9.74919 55.1414 9.74424 68.2451 22.84 68.25 38.9992 68.25 39.003 68.25 39.0068 68.25 39.0106 68.2339 55.1597 55.1491 68.2485 39 68.2695Z" stroke="#000000" stroke-width="3.54546" transform="matrix(1.01282 0 0 1 1547 505)"/><path d="M39.4063 24.7926 37.7813 24.7926 37.7813 38.1875 24.375 38.1875 24.375 39.8125 37.7813 39.8125 37.7813 53.2301 39.4063 53.2301 39.4063 39.8125 52.8125 39.8125 52.8125 38.1875 39.4063 38.1875 39.4063 24.7926Z" stroke="#000000" stroke-width="3.54546" transform="matrix(1.01282 0 0 1 1547 505)"/></g></g></g><g clip-path="url(#clip44)"><g clip-path="url(#clip45)"><g clip-path="url(#clip46)"><path d="M42.4867 8.85416C23.9144 8.85367 8.85823 23.9091 8.8577 42.4814 8.85717 61.0537 23.9126 76.1098 42.4849 76.1103 61.0572 76.1108 76.1133 61.0554 76.1139 42.4831 76.1139 42.482 76.1139 42.4807 76.1139 42.4796 76.1207 23.9156 61.0772 8.86097 42.5132 8.85416 42.5044 8.85415 42.4955 8.85415 42.4867 8.85416ZM57.5122 53.2746 53.279 57.5077 42.4867 46.7136 31.6979 57.506 27.4647 53.2728 38.25 42.4796 27.4603 31.6873 31.6979 27.4541 42.4867 38.25 53.279 27.4541 57.5122 31.6873 46.7198 42.4796Z" transform="matrix(1.11765 0 0 1 2590 1334)"/></g></g></g><g clip-path="url(#clip47)" filter="url(#fx2)" transform="translate(396 1056)"><g clip-path="url(#clip48)"><path d="M24.1984 94.7598C24.1984 55.5133 56.014 23.6976 95.2604 23.6976L1461.72 23.6976C1500.96 23.6976 1532.78 55.5133 1532.78 94.7598L1532.78 378.995C1532.78 418.242 1500.96 450.058 1461.72 450.058L95.2604 450.058C56.014 450.058 24.1984 418.242 24.1984 378.995Z" fill="#FFFFFF" fill-rule="evenodd"/></g></g><path d="M419 1135.67C419 1097.19 450.192 1066 488.669 1066L1828.33 1066C1866.81 1066 1898 1097.19 1898 1135.67L1898 1414.33C1898 1452.81 1866.81 1484 1828.33 1484L488.669 1484C450.192 1484 419 1452.81 419 1414.33Z" fill="#FFFFFF" fill-rule="evenodd"/><rect x="1378" y="1152" width="598" height="256" fill="#FF9900"/><text fill="#FFFFFF" font-family="Nunito,Nunito_MSFontService,sans-serif" font-weight="400" font-size="48" transform="matrix(1 0 0 1 1411.22 1228)">Coverage<tspan font-weight="700" font-size="61" x="0" y="69">30%</tspan><tspan font-size="48" x="0" y="131">7 blocks for revision</tspan><tspan fill="#7F7F7F" font-style="italic" font-size="61" x="-917.198" y="-105">AUTO LOGGING</tspan></text><path d="M0 0 863.466 3.36424" stroke="#D9D9D9" stroke-width="1.14583" stroke-miterlimit="8" fill="none" fill-rule="evenodd" transform="matrix(1 0 0 -1 500.5 1158.86)"/><path d="M0 0 863.466 3.36424" stroke="#D9D9D9" stroke-width="1.14583" stroke-miterlimit="8" fill="none" fill-rule="evenodd" transform="matrix(1 0 0 -1 500.5 1325.86)"/><text font-family="Nunito,Nunito_MSFontService,sans-serif" font-weight="700" font-size="64" transform="matrix(1 0 0 1 586.3 1262)">4<tspan font-size="64" x="486.252" y="-2">2</tspan><tspan font-weight="400" font-size="43" x="552.575" y="-33">removed</tspan><tspan font-weight="400" font-size="43" x="552.575" y="18">states</tspan><tspan font-size="64" x="3.04773" y="160">70 </tspan><tspan font-weight="400" font-size="43" x="96.7379" y="-36">auto</tspan><tspan font-weight="400" font-size="43" x="182.102" y="-36">-</tspan><tspan font-weight="400" font-size="43" x="200.436" y="-36">logs</tspan><tspan font-weight="400" font-size="43" x="96.7379" y="15">added</tspan><tspan font-weight="400" font-size="43" x="96.4467" y="129">%</tspan><tspan font-weight="400" font-size="43" x="96.4467" y="180">quality</tspan><tspan font-size="64" x="481.351" y="153">4 </tspan><tspan font-weight="400" font-size="43" x="554.273" y="124">levels</tspan><tspan font-weight="400" font-size="43" x="554.273" y="175">corrected</tspan></text><g clip-path="url(#clip49)"><g clip-path="url(#clip50)"><g clip-path="url(#clip51)"><path d="M39 8.125C21.9433 8.12007 8.11207 21.9433 8.10713 39 8.1022 56.0568 21.9254 69.8879 38.9821 69.8929 56.0389 69.8979 69.8701 56.0746 69.875 39.0179 69.875 39.0146 69.875 39.0114 69.875 39.0081 69.884 21.9608 56.0717 8.13394 39.0244 8.125 39.0163 8.125 39.0081 8.125 39 8.125ZM39 68.2671C22.8408 68.272 9.73709 55.1763 9.73213 39.0171 9.72717 22.8578 22.8229 9.75415 38.9821 9.74919 55.1414 9.74424 68.2451 22.84 68.25 38.9992 68.25 39.003 68.25 39.0068 68.25 39.0106 68.2339 55.1597 55.1491 68.2485 39 68.2695Z" stroke="#000000" stroke-width="3.54546" transform="matrix(1.01282 0 0 1 503 1197)"/><path d="M39.4063 24.7926 37.7813 24.7926 37.7813 38.1875 24.375 38.1875 24.375 39.8125 37.7813 39.8125 37.7813 53.2301 39.4063 53.2301 39.4063 39.8125 52.8125 39.8125 52.8125 38.1875 39.4063 38.1875 39.4063 24.7926Z" stroke="#000000" stroke-width="3.54546" transform="matrix(1.01282 0 0 1 503 1197)"/></g></g></g><g clip-path="url(#clip52)"><g clip-path="url(#clip53)"><g clip-path="url(#clip54)"><path d="M1015 1206.33C997.506 1206.33 983.32 1220.51 983.315 1238 983.31 1255.49 997.487 1269.68 1014.98 1269.69 1032.48 1269.69 1046.66 1255.51 1046.67 1238.02 1046.67 1238.02 1046.67 1238.01 1046.67 1238.01 1046.68 1220.52 1032.51 1206.34 1015.02 1206.33 1015.02 1206.33 1015.01 1206.33 1015 1206.33ZM1015 1268.02C998.426 1268.02 984.987 1254.59 984.982 1238.02 984.977 1221.44 998.408 1208 1014.98 1208 1031.56 1207.99 1044.99 1221.43 1045 1238 1045 1238 1045 1238.01 1045 1238.01 1044.98 1254.57 1031.56 1268 1015 1268.02Z" stroke="#000000" stroke-width="3.47826"/><path d="M1000 1237.17 1029.17 1237.17 1029.17 1238.83 1000 1238.83Z" stroke="#000000" stroke-width="3.47826"/></g></g></g><g clip-path="url(#clip55)"><g clip-path="url(#clip56)"><g clip-path="url(#clip57)"><path d="M44.526 14.2656C44.5443 12.6205 43.2313 11.269 41.5864 11.2396L41.4999 11.2396C39.8287 11.2396 38.4739 12.5944 38.4739 14.2656 38.4739 15.9368 39.8287 17.2916 41.4999 17.2916 43.1712 17.2916 44.526 15.9368 44.526 14.2656ZM42.7968 14.2518C42.8044 14.968 42.2301 15.5548 41.5138 15.5624 40.7976 15.5701 40.2108 14.9957 40.2032 14.2794 40.1955 13.5632 40.77 12.9764 41.4862 12.9688 41.4908 12.9687 41.4953 12.9687 41.4999 12.9687L41.5561 12.9687C42.2524 12.982 42.8069 13.5555 42.7968 14.2518Z" stroke="#000000" stroke-width="2.30555" transform="matrix(1 0 0 1 501 1353)"/><path d="M25.0729 31.1249 58.7916 31.1249 58.7916 32.8541 25.0729 32.8541Z" stroke="#000000" stroke-width="2.30555" transform="matrix(1 0 0 1 501 1353)"/><path d="M41.4999 38.0416 58.7916 38.0416 58.7916 39.7708 41.4999 39.7708Z" stroke="#000000" stroke-width="2.30555" transform="matrix(1 0 0 1 501 1353)"/><path d="M24.2083 56.1978 38.0416 56.1978 38.0416 57.927 24.2083 57.927Z" stroke="#000000" stroke-width="2.30555" transform="matrix(1 0 0 1 501 1353)"/><path d="M55.5321 66.1076 59.0907 66.6636 55.1543 59.2411C55.3909 59.1375 55.6063 58.9909 55.7897 58.8088 56.1592 58.4363 56.3773 57.94 56.4018 57.416 56.8899 57.2062 57.2788 56.8172 57.4886 56.3292 57.7255 55.7874 57.7255 55.1713 57.4886 54.6295 57.9175 54.2258 58.1595 53.6622 58.1569 53.0732 58.151 52.5476 57.953 52.0424 57.6002 51.6527 57.7958 51.1605 57.7958 50.612 57.6002 50.1198 57.394 49.5651 56.9566 49.1276 56.4018 48.9215 56.437 48.3285 56.2137 47.7493 55.7897 47.3333 55.4171 46.9639 54.9209 46.7456 54.3969 46.7203 54.1871 46.2322 53.7982 45.8432 53.3101 45.6335 53.0476 45.5162 52.7633 45.4558 52.4758 45.4562 52.1787 45.4576 51.8848 45.5178 51.6112 45.6335 51.2079 45.2008 50.6422 44.956 50.0506 44.9582 49.525 44.9645 49.0197 45.1629 48.6301 45.5159 48.3902 45.4181 48.1335 45.3682 47.8745 45.3689 47.6082 45.3692 47.3443 45.419 47.0964 45.5159 46.5417 45.7217 46.1042 46.1588 45.898 46.7133 45.8617 46.7133 45.8254 46.7133 45.7891 46.7133 45.2332 46.7095 44.6996 46.9317 44.3107 47.3289 43.9412 47.7018 43.7228 48.1983 43.6977 48.7226 43.2094 48.9319 42.8202 49.3211 42.6109 49.8094 42.374 50.3512 42.374 50.9673 42.6109 51.5092 41.7653 52.3055 41.7156 53.633 42.4994 54.4903 42.3048 54.9827 42.3048 55.5307 42.4994 56.0232 42.7057 56.5775 43.1431 57.0147 43.6977 57.2206 43.6532 58.0886 44.1507 58.8936 44.947 59.242L41.0097 66.6662 44.5675 66.1102 46.0978 69.3723 50.0489 61.9369 54 69.3723ZM44.1568 64.4217 46.3684 60.2518C46.4994 60.352 46.6412 60.4373 46.7912 60.506 47.0537 60.6241 47.3384 60.6848 47.6263 60.6841 47.9235 60.683 48.2175 60.6225 48.4909 60.506 48.5674 60.5846 48.6501 60.6569 48.7382 60.7222L46.1963 65.505 45.5842 64.1995ZM55.7422 55.8148 54.7341 56.2298 54.6761 57.3218C54.6743 57.4212 54.6352 57.5163 54.5663 57.5881 54.5012 57.6622 54.4055 57.7023 54.307 57.697L53.0404 57.6373 52.5752 58.8261C52.5421 58.9119 52.4718 58.978 52.3841 59.006 52.3331 59.0272 52.2786 59.0384 52.2233 59.0388 52.1903 59.04 52.1574 59.0348 52.1265 59.0233L51.1504 58.6186 50.3463 59.3103C50.2701 59.3942 50.1639 59.4448 50.0506 59.4512 49.9397 59.4544 49.8326 59.4112 49.7549 59.3319L48.9353 58.4457 47.8235 58.9143C47.7623 58.941 47.6965 58.9554 47.6298 58.9567 47.5867 58.9572 47.544 58.9486 47.5044 58.9316 47.4207 58.9007 47.3508 58.841 47.3073 58.763L46.8923 57.7549 45.8047 57.6953C45.7053 57.6933 45.6102 57.6541 45.5384 57.5855 45.4588 57.5142 45.4185 57.4089 45.4303 57.3027L45.49 56.0361 44.2968 55.5926C44.2114 55.559 44.1455 55.4888 44.117 55.4015 44.0805 55.3198 44.0746 55.2277 44.1006 55.1422L44.5199 54.1211 43.772 53.311C43.7099 53.2428 43.6749 53.1542 43.6735 53.062 43.67 52.951 43.7133 52.8438 43.7928 52.7663L44.6747 51.9432 44.2061 50.8374C44.1586 50.7371 44.1526 50.6221 44.1896 50.5175 44.2205 50.4341 44.28 50.3642 44.3574 50.3204L45.3655 49.9054 45.426 48.8177C45.4271 48.7183 45.4661 48.6231 45.5349 48.5514 45.6 48.4772 45.6956 48.4367 45.7943 48.4416L47.0609 48.5022 47.5261 47.3134C47.5594 47.2275 47.6295 47.1612 47.7171 47.1327 47.7682 47.1119 47.8228 47.1008 47.8779 47.0998 47.911 47.0987 47.9439 47.1043 47.9748 47.1162L48.9543 47.52 49.7593 46.8283C49.8345 46.7454 49.9389 46.6948 50.0506 46.6874 50.1616 46.6839 50.2689 46.7273 50.3463 46.8067L51.1694 47.6886 52.2821 47.2209C52.3432 47.1941 52.409 47.1797 52.4758 47.1785 52.5186 47.1777 52.5611 47.1863 52.6003 47.2036 52.6849 47.2352 52.755 47.2967 52.7974 47.3765L53.2124 48.3837 54.3009 48.4442C54.3999 48.446 54.4947 48.4848 54.5663 48.5532 54.6457 48.625 54.6862 48.7302 54.6753 48.8368L54.6148 50.1034 55.8044 50.5417C55.89 50.5752 55.9561 50.6453 55.9843 50.7328 56.0205 50.8145 56.0266 50.9064 56.0015 50.9922L55.5978 51.9717 56.2895 52.7758C56.3734 52.852 56.424 52.9582 56.4304 53.0715 56.4338 53.1827 56.3904 53.2901 56.3111 53.368L55.4301 54.1911 55.8978 55.303C55.9453 55.4033 55.9512 55.5182 55.9142 55.6229 55.882 55.705 55.8216 55.773 55.7439 55.8148ZM55.9428 64.4217 54.5162 64.1995 53.9041 65.505 51.3562 60.7049C51.3951 60.6755 51.4366 60.6495 51.4737 60.6184 51.7137 60.716 51.9703 60.7657 52.2294 60.7645 52.4956 60.7644 52.7595 60.7149 53.0075 60.6184 53.2651 60.5197 53.5002 60.3703 53.6992 60.1792Z" stroke="#000000" stroke-width="2.30555" transform="matrix(1 0 0 1 501 1353)"/><path d="M54.8698 53.0663C54.8689 50.4048 52.7104 48.2479 50.0489 48.2488 47.3874 48.2498 45.2305 50.4082 45.2315 53.0698 45.2324 55.7307 47.3897 57.8872 50.0506 57.8872 52.7122 57.8857 54.8693 55.7279 54.8698 53.0663ZM53.1406 53.0663C53.1387 54.7729 51.7538 56.1548 50.0472 56.1528 48.3406 56.1509 46.9587 54.766 46.9606 53.0594 46.9625 51.3542 48.3454 49.9728 50.0506 49.9728 51.7576 49.9752 53.1402 51.3593 53.1406 53.0663Z" stroke="#000000" stroke-width="2.30555" transform="matrix(1 0 0 1 501 1353)"/><path d="M63.979 12.9506 51.0103 12.9506 51.0103 11.2214C51.0075 8.83507 49.0737 6.90136 46.6874 6.8985L36.3124 6.8985C33.9264 6.90183 31.9929 8.83533 31.9895 11.2214L31.9895 12.9506 19.0208 12.9506C17.1108 12.9506 15.5625 14.4989 15.5625 16.4089L15.5625 72.6249C15.5625 74.5348 17.1108 76.0832 19.0208 76.0832L63.979 76.0832C65.889 76.0832 67.4374 74.5348 67.4374 72.6249L67.4374 16.4089C67.4349 14.4999 65.888 12.953 63.979 12.9506ZM30.2604 14.6797 33.7187 14.6797 33.7187 11.2214C33.7187 9.78888 34.8799 8.62766 36.3124 8.62766L46.6874 8.62766C48.1199 8.62766 49.2812 9.78888 49.2812 11.2214L49.2812 14.6797 52.7395 14.6797 52.7395 21.6145 30.2604 21.6145ZM65.7082 72.6249C65.7082 73.5799 64.9341 74.354 63.979 74.354L19.0208 74.354C18.0658 74.354 17.2916 73.5799 17.2916 72.6249L17.2916 16.4089C17.2916 15.4539 18.0658 14.6797 19.0208 14.6797L28.5312 14.6797 28.5312 23.3437 54.4686 23.3437 54.4686 14.6797 63.979 14.6797C64.9341 14.6797 65.7082 15.4539 65.7082 16.4089Z" stroke="#000000" stroke-width="2.30555" transform="matrix(1 0 0 1 501 1353)"/></g></g></g><text fill="#7F7F7F" font-family="Nunito,Nunito_MSFontService,sans-serif" font-style="italic" font-weight="400" font-size="61" transform="matrix(1 0 0 1 1594.68 269)">VERIFICATION</text><g clip-path="url(#clip58)"><g clip-path="url(#clip59)"><g clip-path="url(#clip60)"><path d="M1051.02 1375.32 1041.7 1375.32C1041.17 1370.74 1037.03 1367.46 1032.45 1367.99 1028.6 1368.43 1025.56 1371.47 1025.12 1375.32L987.979 1375.32 987.979 1377.18 1025.12 1377.18C1025.64 1381.76 1029.78 1385.04 1034.36 1384.51 1038.21 1384.07 1041.25 1381.03 1041.7 1377.18L1051.02 1377.18ZM1033.41 1382.74C1029.82 1382.74 1026.92 1379.83 1026.92 1376.25 1026.92 1372.67 1029.82 1369.76 1033.41 1369.76 1036.99 1369.76 1039.9 1372.67 1039.9 1376.25 1039.89 1379.83 1036.99 1382.74 1033.41 1382.74Z" stroke="#000000" stroke-width="2.37333"/><path d="M1051.02 1421.68 1051.02 1419.82 1037.99 1419.82C1037.46 1415.24 1033.32 1411.96 1028.74 1412.49 1024.89 1412.93 1021.85 1415.97 1021.41 1419.82L987.979 1419.82 987.979 1421.68 1021.41 1421.68C1021.94 1426.26 1026.07 1429.54 1030.65 1429.01 1034.5 1428.57 1037.54 1425.53 1037.99 1421.68ZM1029.7 1427.24C1026.11 1427.24 1023.21 1424.33 1023.21 1420.75 1023.21 1417.17 1026.11 1414.26 1029.7 1414.26 1033.28 1414.26 1036.19 1417.17 1036.19 1420.75 1036.18 1424.33 1033.28 1427.24 1029.7 1427.24Z" stroke="#000000" stroke-width="2.37333"/><path d="M1006.52 1390.16C1002.27 1390.16 998.704 1393.35 998.232 1397.57L987.979 1397.57 987.979 1399.43 998.232 1399.43C998.758 1404.01 1002.9 1407.29 1007.47 1406.76 1011.33 1406.32 1014.37 1403.28 1014.81 1399.43L1051.02 1399.43 1051.02 1397.57 1014.81 1397.57C1014.34 1393.35 1010.77 1390.16 1006.52 1390.16ZM1006.52 1404.99C1002.94 1404.99 1000.03 1402.08 1000.03 1398.5 1000.03 1394.92 1002.94 1392.01 1006.52 1392.01 1010.1 1392.01 1013.01 1394.92 1013.01 1398.5 1013.01 1402.08 1010.1 1404.99 1006.52 1404.99Z" stroke="#000000" stroke-width="2.37333"/></g></g></g></g></svg>