<svg width="1639" height="1467" xmlns="http://www.w3.org/2000/svg" xmlns:xlink="http://www.w3.org/1999/xlink" overflow="hidden"><defs><filter id="fx0" x="-10%" y="-10%" width="120%" height="120%" filterUnits="userSpaceOnUse" primitiveUnits="userSpaceOnUse"><feComponentTransfer color-interpolation-filters="sRGB"><feFuncR type="discrete" tableValues="0 0"/><feFuncG type="discrete" tableValues="0 0"/><feFuncB type="discrete" tableValues="0 0"/><feFuncA type="linear" slope="0.14902" intercept="0"/></feComponentTransfer><feGaussianBlur stdDeviation="7.63889 7.63889"/></filter><filter id="fx1" x="-10%" y="-10%" width="120%" height="120%" filterUnits="userSpaceOnUse" primitiveUnits="userSpaceOnUse"><feComponentTransfer color-interpolation-filters="sRGB"><feFuncR type="discrete" tableValues="0 0"/><feFuncG type="discrete" tableValues="0 0"/><feFuncB type="discrete" tableValues="0 0"/><feFuncA type="linear" slope="0.14902" intercept="0"/></feComponentTransfer><feGaussianBlur stdDeviation="7.63889 7.63889"/></filter><clipPath id="clip2"><rect x="1327" y="473" width="1639" height="1467"/></clipPath><clipPath id="clip3"><rect x="-7" y="-7" width="1570" height="526"/></clipPath><clipPath id="clip4"><rect x="0" y="0" width="1558" height="512"/></clipPath><clipPath id="clip5"><rect x="1922" y="1780" width="71" height="71"/></clipPath><clipPath id="clip6"><rect x="1922" y="1780" width="71" height="71"/></clipPath><clipPath id="clip7"><rect x="1922" y="1780" width="71" height="71"/></clipPath><clipPath id="clip8"><rect x="2341" y="1776" width="68" height="67"/></clipPath><clipPath id="clip9"><rect x="2341" y="1776" width="68" height="67"/></clipPath><clipPath id="clip10"><rect x="2341" y="1776" width="68" height="67"/></clipPath><clipPath id="clip11"><rect x="-7" y="-7" width="1574" height="487"/></clipPath><clipPath id="clip12"><rect x="0" y="0" width="1561" height="473"/></clipPath><clipPath id="clip13"><rect x="1914" y="611" width="81" height="81"/></clipPath><clipPath id="clip14"><rect x="1914" y="611" width="81" height="81"/></clipPath><clipPath id="clip15"><rect x="1914" y="611" width="81" height="81"/></clipPath><clipPath id="clip16"><rect x="1905" y="749" width="95" height="85"/></clipPath><clipPath id="clip17"><rect x="1905" y="749" width="95" height="85"/></clipPath><clipPath id="clip18"><rect x="1905" y="749" width="95" height="85"/></clipPath><clipPath id="clip19"><rect x="1380" y="1061" width="165" height="164"/></clipPath><clipPath id="clip20"><rect x="1380" y="1061" width="165" height="164"/></clipPath><clipPath id="clip21"><rect x="1380" y="1061" width="165" height="164"/></clipPath><clipPath id="clip22"><rect x="1735" y="1063" width="164" height="164"/></clipPath><clipPath id="clip23"><rect x="1735" y="1063" width="164" height="164"/></clipPath><clipPath id="clip24"><rect x="1735" y="1063" width="164" height="164"/></clipPath><clipPath id="clip25"><rect x="2703" y="1061" width="164" height="164"/></clipPath><clipPath id="clip26"><rect x="2703" y="1061" width="164" height="164"/></clipPath><clipPath id="clip27"><rect x="2703" y="1061" width="164" height="164"/></clipPath><clipPath id="clip28"><rect x="2424" y="1053" width="170" height="172"/></clipPath><clipPath id="clip29"><rect x="2424" y="1053" width="170" height="172"/></clipPath><clipPath id="clip30"><rect x="2424" y="1053" width="170" height="172"/></clipPath><clipPath id="clip31"><rect x="2077" y="1061" width="164" height="164"/></clipPath><clipPath id="clip32"><rect x="2077" y="1061" width="164" height="164"/></clipPath><clipPath id="clip33"><rect x="2077" y="1061" width="164" height="164"/></clipPath><clipPath id="clip34"><rect x="1446" y="1607" width="80" height="80"/></clipPath><clipPath id="clip35"><rect x="1446" y="1607" width="80" height="80"/></clipPath><clipPath id="clip36"><rect x="1446" y="1607" width="80" height="80"/></clipPath><clipPath id="clip37"><rect x="1921" y="1601" width="80" height="80"/></clipPath><clipPath id="clip38"><rect x="1921" y="1601" width="80" height="80"/></clipPath><clipPath id="clip39"><rect x="1921" y="1601" width="80" height="80"/></clipPath><clipPath id="clip40"><rect x="1446" y="614" width="79" height="79"/></clipPath><clipPath id="clip41"><rect x="1446" y="614" width="79" height="79"/></clipPath><clipPath id="clip42"><rect x="1446" y="614" width="79" height="79"/></clipPath><clipPath id="clip43"><rect x="1454" y="1769" width="79" height="79"/></clipPath><clipPath id="clip44"><rect x="1454" y="1769" width="79" height="79"/></clipPath><clipPath id="clip45"><rect x="1454" y="1769" width="79" height="79"/></clipPath><clipPath id="clip46"><rect x="1439" y="746" width="96" height="86"/></clipPath><clipPath id="clip47"><rect x="1439" y="746" width="96" height="86"/></clipPath><clipPath id="clip48"><rect x="1439" y="746" width="96" height="86"/></clipPath></defs><g clip-path="url(#clip2)" transform="translate(-1327 -473)"><path d="M2786.5 892.5 2786.5 1061.84" stroke="#A6A6A6" stroke-width="6.875" stroke-miterlimit="8" stroke-dasharray="27.5 20.625" fill="none" fill-rule="evenodd"/><path d="M0 0 0.000360892 163.099" stroke="#A6A6A6" stroke-width="6.875" stroke-miterlimit="8" stroke-dasharray="27.5 20.625" fill="none" fill-rule="evenodd" transform="matrix(-1 0 0 1 2486.5 1337.5)"/><path d="M0 0 0.000360892 154.815" stroke="#A6A6A6" stroke-width="6.875" stroke-miterlimit="8" stroke-dasharray="27.5 20.625" fill="none" fill-rule="evenodd" transform="matrix(-1 0 0 1 2148.5 1338.5)"/><g clip-path="url(#clip3)" filter="url(#fx0)" transform="translate(1344 1429)"><g clip-path="url(#clip4)"><path d="M24.1985 101.05C24.1985 58.3294 58.8302 23.6976 101.551 23.6976L1456.45 23.6976C1499.17 23.6976 1533.8 58.3294 1533.8 101.05L1533.8 410.446C1533.8 453.166 1499.17 487.798 1456.45 487.798L101.551 487.798C58.8302 487.798 24.1985 453.166 24.1985 410.446Z" fill="#FFFFFF" fill-rule="evenodd"/></g></g><path d="M1367 1514.84C1367 1472.95 1400.95 1439 1442.84 1439L2771.16 1439C2813.05 1439 2847 1472.95 2847 1514.84L2847 1818.16C2847 1860.05 2813.05 1894 2771.16 1894L1442.84 1894C1400.95 1894 1367 1860.05 1367 1818.16Z" fill="#FFFFFF" fill-rule="evenodd"/><rect x="2331" y="1492" width="598" height="256" fill="#FF0000"/><text fill="#FFFFFF" font-family="Nunito,Nunito_MSFontService,sans-serif" font-weight="400" font-size="48" transform="matrix(1 0 0 1 2364.36 1569)">Quality Gate<tspan font-weight="700" font-size="61" x="0" y="69">Failed</tspan><tspan font-size="48" x="0" y="131">1 condition failed</tspan><tspan fill="#7F7F7F" font-style="italic" font-size="61" x="-921.904" y="-36">VERIFICATION</tspan></text><path d="M0 0 863.466 3.36424" stroke="#D9D9D9" stroke-width="1.14583" stroke-miterlimit="8" fill="none" fill-rule="evenodd" transform="matrix(1 0 0 -1 1448.5 1568.86)"/><path d="M0 0 863.466 3.36424" stroke="#D9D9D9" stroke-width="1.14583" stroke-miterlimit="8" fill="none" fill-rule="evenodd" transform="matrix(1 0 0 -1 1448.5 1735.86)"/><text font-family="Nunito,Nunito_MSFontService,sans-serif" font-weight="700" font-size="64" transform="matrix(1 0 0 1 1534.73 1672)">35<tspan font-size="64" x="486.252" y="-2">2</tspan><tspan font-weight="400" font-size="43" x="554.169" y="-8">faults</tspan><tspan font-size="64" x="3.04773" y="160">3 </tspan><tspan font-weight="400" font-size="43" x="96.7379" y="-36">%</tspan><tspan font-weight="400" font-size="43" x="96.7379" y="15">risk</tspan><tspan font-weight="400" font-size="43" x="96.4467" y="129">added</tspan><tspan font-weight="400" font-size="43" x="96.4467" y="180">states</tspan><tspan font-size="64" x="487.819" y="168">1 </tspan><tspan font-weight="400" font-size="43" x="551.013" y="136">freq. </tspan><tspan font-weight="400" font-size="43" x="551.013" y="187">change</tspan></text><g clip-path="url(#clip5)"><g clip-path="url(#clip6)"><g clip-path="url(#clip7)"><path d="M5.03126 43.8438 58.7651 43.8438 52.3826 37.4613C51.5707 36.59 51.6189 35.2256 52.4902 34.4138 53.3182 33.6421 54.602 33.6421 55.4301 34.4138L65.4926 44.4763C66.3334 45.3182 66.3334 46.6819 65.4926 47.5238L55.4301 57.5863C54.5882 58.4271 53.2244 58.4271 52.3826 57.5863 51.5418 56.7445 51.5418 55.3807 52.3826 54.5388L58.7651 48.1563 5.03126 48.1563C3.84039 48.1563 2.875 47.191 2.875 46.0001 2.875 44.8092 3.84039 43.8438 5.03126 43.8438Z" transform="matrix(-1 0 0 1 1992 1781)"/><path d="M63.9688 20.8438 10.235 20.8438 16.6175 14.4613C17.4888 13.6494 17.5369 12.285 16.7251 11.4138 15.9133 10.5425 14.5488 10.4943 13.6776 11.3062 13.6405 11.3407 13.6046 11.3767 13.57 11.4138L3.5075 21.4763C2.6667 22.3182 2.6667 23.6819 3.5075 24.5238L13.57 34.5863C14.4119 35.4271 15.7757 35.4271 16.6175 34.5863 17.4583 33.7444 17.4583 32.3807 16.6175 31.5388L10.235 25.1563 63.9688 25.1563C65.1597 25.1563 66.1251 24.1909 66.1251 23 66.1251 21.8091 65.1597 20.8438 63.9688 20.8438Z" transform="matrix(-1 0 0 1 1992 1781)"/></g></g></g><text font-family="Nunito,Nunito_MSFontService,sans-serif" font-weight="700" font-size="64" transform="matrix(1 0 0 1 2452.91 1830)">4 <tspan font-weight="400" font-size="43" x="72.9216" y="-29">recurring</tspan><tspan font-weight="400" font-size="43" x="72.9216" y="22">states</tspan></text><g clip-path="url(#clip8)"><g clip-path="url(#clip9)"><g clip-path="url(#clip10)"><path d="M14.3687 39.6 27.5687 26.4 20.2125 26.4C22.6188 21.725 27.5 18.4937 33.1375 18.4937 36.7812 18.4937 40.15 19.8687 42.6937 22.1375L56.1 22.1375C52.0437 13.475 43.2438 7.5625 33.1375 7.5625 21.3813 7.5625 11.4813 15.5375 8.59375 26.4L1.16875 26.4 14.3687 39.6Z" transform="matrix(1.01515 0 0 -1 2342 1843)"/><path d="M65.0375 39.6 51.8375 26.4 38.6375 39.6 46.0625 39.6C43.6562 44.275 38.775 47.5062 33.1375 47.5062 29.4938 47.5062 26.125 46.1312 23.5812 43.8625L10.1062 43.8625C14.2313 52.525 22.9625 58.4375 33.1375 58.4375 44.8938 58.4375 54.7937 50.4625 57.6813 39.6L65.0375 39.6Z" transform="matrix(1.01515 0 0 -1 2342 1843)"/></g></g></g><g clip-path="url(#clip11)" filter="url(#fx1)" transform="translate(1335 473)"><g clip-path="url(#clip12)"><path d="M24.1986 94.5896C24.1986 55.437 55.938 23.6976 95.0905 23.6976L1465.97 23.6976C1505.12 23.6976 1536.86 55.437 1536.86 94.5896L1536.86 378.146C1536.86 417.298 1505.12 449.038 1465.97 449.038L95.0905 449.038C55.938 449.038 24.1986 417.298 24.1986 378.146Z" fill="#FFFFFF" fill-rule="evenodd"/></g></g><path d="M1358 552.502C1358 514.117 1389.12 483 1427.5 483L2771.5 483C2809.88 483 2841 514.117 2841 552.502L2841 830.498C2841 868.883 2809.88 900 2771.5 900L1427.5 900C1389.12 900 1358 868.883 1358 830.498Z" fill="#FFFFFF" fill-rule="evenodd"/><text fill="#7F7F7F" font-family="Nunito,Nunito_MSFontService,sans-serif" font-style="italic" font-weight="400" font-size="61" transform="matrix(1 0 0 1 1446.98 559)">INCIDENT DETECTION<tspan fill="#000000" font-style="normal" font-weight="700" font-size="64" x="97.1493" y="113">0</tspan><tspan fill="#000000" font-style="normal" font-size="43" x="173.067" y="109">incidents</tspan></text><g clip-path="url(#clip13)"><g clip-path="url(#clip14)"><g clip-path="url(#clip15)"><path d="M1937.33 647 1970.67 647 1970.67 648.667 1937.33 648.667Z"/><path d="M1937.33 640.333 1953.17 640.333 1953.17 642 1937.33 642Z"/><path d="M1937.33 653.667 1970.67 653.667 1970.67 655.333 1937.33 655.333Z"/><path d="M1937.33 660.333 1970.67 660.333 1970.67 662 1937.33 662Z"/><path d="M1937.33 667 1970.67 667 1970.67 668.667 1937.33 668.667Z"/><path d="M1937.33 673.667 1970.67 673.667 1970.67 675.333 1937.33 675.333Z"/><path d="M1929 618.667 1929 685.333 1979 685.333 1979 636.655 1961.01 618.667ZM1961.51 621.526 1976.14 636.152C1976.14 636.156 1976.14 636.161 1976.14 636.164 1976.14 636.166 1976.14 636.167 1976.14 636.167L1961.5 636.167 1961.5 621.532C1961.5 621.527 1961.5 621.523 1961.51 621.523 1961.51 621.523 1961.51 621.524 1961.51 621.526ZM1930.67 683.667 1930.67 620.333 1959.83 620.333 1959.83 637.833 1977.33 637.833 1977.33 683.667Z"/></g></g></g><text font-family="Nunito,Nunito_MSFontService,sans-serif" font-weight="700" font-size="64" transform="matrix(1 0 0 1 1997.33 673)">6K<tspan font-weight="400" font-size="43" x="95.6212" y="-12">logs</tspan><tspan font-size="64" x="-448.961" y="134">0</tspan></text><g clip-path="url(#clip16)"><g clip-path="url(#clip17)"><g clip-path="url(#clip18)"><path d="M42.4867 8.85416C23.9144 8.85367 8.85823 23.9091 8.8577 42.4814 8.85717 61.0537 23.9126 76.1098 42.4849 76.1103 61.0572 76.1108 76.1133 61.0554 76.1139 42.4831 76.1139 42.482 76.1139 42.4807 76.1139 42.4796 76.1207 23.9156 61.0772 8.86097 42.5132 8.85416 42.5044 8.85415 42.4955 8.85415 42.4867 8.85416ZM57.5122 53.2746 53.279 57.5077 42.4867 46.7136 31.6979 57.506 27.4647 53.2728 38.25 42.4796 27.4603 31.6873 31.6979 27.4541 42.4867 38.25 53.279 27.4541 57.5122 31.6873 46.7198 42.4796Z" transform="matrix(1.11765 0 0 1 1905 749)"/></g></g></g><text font-family="Nunito,Nunito_MSFontService,sans-serif" font-weight="400" font-size="43" transform="matrix(1 0 0 1 1620.7 779)">semantic<tspan font-size="43" x="0" y="51">threats</tspan><tspan font-weight="700" font-size="64" x="379.705" y="32">12</tspan><tspan font-size="43" x="474.93" y="-1">level </tspan><tspan font-size="43" x="474.93" y="50">threats</tspan></text><path d="M0 0 854.297 6.12074" stroke="#D9D9D9" stroke-width="1.14583" stroke-miterlimit="8" fill="none" fill-rule="evenodd" transform="matrix(1 0 0 -1 1448.5 723.621)"/><path d="M0 0 854.297 6.12074" stroke="#D9D9D9" stroke-width="1.14583" stroke-miterlimit="8" fill="none" fill-rule="evenodd" transform="matrix(1 0 0 -1 1445.5 590.621)"/><rect x="2331" y="560" width="598" height="256" fill="#00B050"/><text fill="#FFFFFF" font-family="Nunito,Nunito_MSFontService,sans-serif" font-weight="400" font-size="48" transform="matrix(1 0 0 1 2364.36 636)">Monitoring<tspan font-weight="700" font-size="61" x="0" y="69">Passed</tspan><tspan font-size="48" x="0" y="131">No incidents</tspan></text><g clip-path="url(#clip19)"><g clip-path="url(#clip20)"><g clip-path="url(#clip21)"><path d="M105.61 92.7062C112.742 95.2531 119.533 98.1395 125.136 102.724 127.513 104.592 128.872 107.308 128.872 110.365L131.928 136.682C132.098 137.871 131.588 139.059 130.57 139.738L130.57 139.738C127.683 141.606 124.627 143.134 121.401 144.153L121.401 149.586 125.985 149.586C128.872 148.398 131.758 147.04 134.305 145.342L134.305 145.342C137.361 143.304 139.059 139.569 138.55 135.833L135.833 110.195C135.663 105.271 133.456 100.686 129.551 97.6302 123.269 92.3666 115.798 89.1406 107.987 86.4239L99.6677 83.0281C98.9885 82.6885 98.6489 82.1791 98.6489 81.5L98.6489 77.425C105.101 72.3312 108.836 64.5208 108.836 56.201L108.836 50.0885C109.855 50.7677 111.044 50.9375 112.232 51.1073L109.346 42.6177C109.006 41.4291 108.667 40.2406 108.497 39.0521 107.138 29.3739 101.366 22.5823 93.3854 18.3375 92.7062 17.9979 91.8573 17.9979 91.1781 18.5073L89.65 19.6958 87.952 17.3187C87.4427 16.6396 86.7635 15.9604 85.9146 15.7906 84.3864 15.451 82.8583 15.2812 81.3302 15.2812 67.9166 15.2812 56.7104 25.8083 54.3333 39.5614L54.3333 40.75 54.3333 40.75 54.3333 43.6364C54.3333 47.3719 53.6541 50.9375 52.126 54.3333L49.2396 61.125C49.2396 61.125 51.2771 60.6156 54.6729 59.5969 55.5219 66.5583 59.0875 72.8406 64.5208 77.0854L64.5208 81.3302C64.5208 82.0093 64.1812 82.6885 63.5021 82.8583L55.1823 86.2541C47.3719 88.9708 39.901 92.1968 33.6187 97.4604 29.7135 100.517 27.3364 105.101 27.1667 110.025L24.2802 135.833C23.7708 139.569 25.4687 143.304 28.525 145.342 31.0719 147.04 33.9583 148.398 36.8448 149.586L41.5989 149.586 41.5989 144.323C38.3729 143.134 35.3167 141.776 32.4302 139.908 31.4114 139.229 30.9021 138.041 31.0719 136.852L33.9583 110.704 33.9583 110.365C33.9583 107.308 35.4864 104.592 37.8635 102.724 43.4667 98.1395 50.2583 95.2531 57.3896 92.7062L60.1062 91.8573C65.0302 94.9135 72.8406 96.7812 81.5 96.7812 90.1593 96.7812 97.9698 94.9135 103.064 91.8573L105.61 92.7062ZM61.125 57.5594C72.6708 53.6541 89.3104 46.8625 96.7812 37.3542 98.3093 39.7312 100.007 41.9385 101.875 44.1458L101.875 56.0312C101.875 67.2375 92.7062 76.4062 81.5 76.4062 70.8031 76.4062 61.9739 68.2562 61.125 57.5594ZM67.9166 88.1218C69.9541 86.5937 71.3125 84.0468 71.3125 81.3302L71.3125 81.1604C77.7645 83.8771 85.2354 83.8771 91.6875 81.1604L91.6875 81.3302C91.6875 83.8771 92.876 86.4239 94.9135 88.1218 90.4989 89.4802 85.9146 90.1593 81.3302 89.9895 76.9156 89.9895 72.3312 89.3104 67.9166 88.1218Z" fill="#012970" transform="matrix(1 0 0 1 1381 1061)"/><path d="M118.175 110.874C118.175 108.497 116.307 106.629 113.93 106.629L113.93 106.629 49.2396 106.629C46.8625 106.629 44.9948 108.497 44.9948 110.874L44.9948 110.874 44.9948 153.152 32.0906 153.152 32.0906 155.359C32.0906 157.736 33.9583 159.604 36.3354 159.604L126.834 159.604C129.211 159.604 131.079 157.736 131.079 155.359L131.079 153.152 118.175 153.152 118.175 110.874ZM72.6708 138.89 70.2937 141.267 60.7854 131.758 70.2937 122.25 72.6708 124.627 65.5396 131.758 72.6708 138.89ZM79.1229 142.455 76.0666 141.097 84.0468 121.91 87.1031 123.269 79.1229 142.455ZM92.7062 141.436 90.3291 139.059 97.4604 131.928 90.3291 124.797 92.7062 122.42 102.215 131.928 92.7062 141.436Z" fill="#012970" transform="matrix(1 0 0 1 1381 1061)"/></g></g></g><g clip-path="url(#clip22)"><g clip-path="url(#clip23)"><g clip-path="url(#clip24)"><path d="M1764.02 1204.59C1762.83 1205.78 1761.3 1206.12 1759.77 1205.44 1758.24 1204.76 1757.39 1203.4 1757.39 1201.87 1757.39 1200.34 1758.41 1198.81 1759.77 1198.31 1761.3 1197.63 1762.83 1197.97 1764.02 1199.15 1765.54 1200.51 1765.54 1203.06 1764.02 1204.59ZM1883.89 1092.69 1870.14 1106.45 1859.27 1103.56 1856.55 1092.86 1870.31 1079.11C1862.16 1076.06 1852.99 1077.92 1846.53 1083.7 1840.08 1089.64 1837.54 1098.47 1839.74 1106.96L1753.15 1193.55C1750.09 1196.44 1748.9 1200.85 1749.92 1204.93 1750.94 1209 1754.17 1212.23 1758.24 1213.25 1762.32 1214.27 1766.56 1213.08 1769.62 1210.02L1856.21 1123.43C1864.7 1125.63 1873.53 1123.09 1879.47 1116.64 1885.25 1110.18 1887.11 1100.84 1883.89 1092.69Z" fill="#012970"/><path d="M1883.21 1193.55 1839.4 1149.74 1821.74 1167.4 1864.19 1209.85 1865.72 1211.38 1865.89 1211.21C1870.81 1214.77 1877.61 1214.1 1881.85 1209.85 1886.1 1205.44 1886.6 1198.64 1883.21 1193.55L1883.21 1193.55Z" fill="#012970"/><path d="M1774.37 1097.62 1774.54 1097.45 1770.13 1089.3 1755.53 1077.58 1749.58 1083.53 1761.3 1098.13 1769.45 1102.54 1769.62 1102.37 1802.05 1134.8 1806.8 1130.05Z" fill="#012970"/></g></g></g><g clip-path="url(#clip25)"><g clip-path="url(#clip26)"><g clip-path="url(#clip27)"><path d="M81.0001 101.25C69.8626 101.25 60.7501 92.1376 60.7501 81.0001 60.7501 69.8626 69.8626 60.7501 81.0001 60.7501 92.1376 60.7501 101.25 69.8626 101.25 81.0001 101.25 92.1376 92.1376 101.25 81.0001 101.25ZM126.563 68.3439C125.55 64.6314 124.031 61.0876 122.175 57.8813L126.394 45.2251 116.775 35.6063 104.119 39.8251C100.744 37.9688 97.2002 36.4501 93.4877 35.4376L87.7501 23.625 74.2501 23.625 68.3439 35.4376C64.6314 36.4501 61.0876 37.9688 57.8813 39.8251L45.2251 35.6063 35.6063 45.2251 39.8251 57.8813C37.9688 61.2563 36.4501 64.8001 35.4376 68.5126L23.625 74.2501 23.625 87.7501 35.4376 93.6564C36.4501 97.3689 37.9688 100.913 39.8251 104.119L35.6063 116.775 45.2251 126.394 57.8813 122.175C61.2563 124.031 64.8001 125.55 68.5126 126.563L74.4189 138.375 87.9189 138.375 93.8251 126.563C97.5377 125.55 101.081 124.031 104.288 122.175L116.944 126.394 126.563 116.775 122.344 104.119C124.2 100.744 125.719 97.2002 126.731 93.4877L138.544 87.5814 138.544 74.0814 126.563 68.3439Z" fill="#012970" transform="matrix(6.12323e-17 1 -1.00617 6.16102e-17 2867 1062)"/></g></g></g><g clip-path="url(#clip28)"><g clip-path="url(#clip29)"><g clip-path="url(#clip30)"><path d="M84.9999 35.4166C88.4229 35.4166 91.1978 32.6417 91.1978 29.2187 91.1978 25.7957 88.4229 23.0208 84.9999 23.0208L84.8228 23.0208C81.4536 23.081 78.7645 25.8492 78.802 29.2187 78.8078 32.6393 81.5794 35.4108 84.9999 35.4166ZM83.0662 27.3416C83.5439 26.8506 84.1979 26.5701 84.883 26.5625L84.9999 26.5625C86.4669 26.5625 87.6561 27.7518 87.656 29.2189 87.656 30.6859 86.4667 31.875 84.9995 31.875 83.5326 31.875 82.3435 30.6857 82.3435 29.2185 82.3435 29.2099 82.3437 29.201 82.3437 29.1922 82.3275 28.5054 82.5871 27.841 83.0644 27.3469Z" fill="#012970" transform="matrix(1 0 0 1 2424 1054)"/><path d="M83.2308 65.5172 120.418 65.5172 120.418 69.0589 83.2308 69.0589Z" fill="#012970" transform="matrix(1 0 0 1 2424 1054)"/><path d="M83.2308 86.7672 120.418 86.7672 120.418 90.3089 83.2308 90.3089Z" fill="#012970" transform="matrix(1 0 0 1 2424 1054)"/><path d="M83.2308 108.017 120.418 108.017 120.418 111.559 83.2308 111.559Z" fill="#012970" transform="matrix(1 0 0 1 2424 1054)"/><path d="M83.2308 129.267 120.418 129.267 120.418 132.809 83.2308 132.809Z" fill="#012970" transform="matrix(1 0 0 1 2424 1054)"/><path d="M65.156 58.9563 59.3246 64.7876 53.4933 58.9563 50.9893 61.4602 56.8207 67.2916 50.9893 73.1229 53.4933 75.6269 59.3246 69.7955 65.156 75.6269 67.6599 73.1229 61.8286 67.2916 67.6599 61.4602 65.156 58.9563Z" fill="#012970" transform="matrix(1 0 0 1 2424 1054)"/><path d="M65.156 80.2063 59.3246 86.0376 53.4933 80.2063 50.9893 82.7102 56.8207 88.5416 50.9893 94.3729 53.4933 96.8769 59.3246 91.0455 65.156 96.8769 67.6599 94.3729 61.8286 88.5416 67.6599 82.7102 65.156 80.2063Z" fill="#012970" transform="matrix(1 0 0 1 2424 1054)"/><path d="M53.1249 116.875 67.2916 116.875 67.2916 102.708 53.1249 102.708ZM56.6666 106.25 63.7499 106.25 63.7499 113.333 56.6666 113.333Z" fill="#012970" transform="matrix(1 0 0 1 2424 1054)"/><path d="M53.1249 138.125 67.2916 138.125 67.2916 123.958 53.1249 123.958ZM56.6666 127.5 63.7499 127.5 63.7499 134.583 56.6666 134.583Z" fill="#012970" transform="matrix(1 0 0 1 2424 1054)"/><path d="M138.125 33.6086C138.125 29.6967 134.953 26.5253 131.042 26.5253L104.479 26.5253 104.479 22.9836C104.473 18.0959 100.513 14.1353 95.6249 14.1295L74.3749 14.1295C69.4872 14.1353 65.5266 18.0959 65.5208 22.9836L65.5208 26.5253 38.9583 26.5253C35.0463 26.5253 31.875 29.6967 31.875 33.6086L31.875 148.75C31.875 152.662 35.0463 155.833 38.9583 155.833L131.042 155.833C134.953 155.833 138.125 152.662 138.125 148.75ZM61.9791 30.0669 69.0624 30.0669 69.0624 22.9836C69.0624 20.0495 71.4408 17.6711 74.3749 17.6711L95.6249 17.6711C98.559 17.6711 100.937 20.0495 100.937 22.9836L100.937 30.0669 108.021 30.0669 108.021 44.2708 61.9791 44.2708ZM131.042 152.291 38.9583 152.291C37.0022 152.291 35.4166 150.706 35.4166 148.75L35.4166 33.6086C35.4166 31.6525 37.0022 30.0669 38.9583 30.0669L58.4374 30.0669 58.4374 47.8124 111.562 47.8124 111.562 30.0669 131.042 30.0669C132.998 30.0669 134.583 31.6525 134.583 33.6086L134.583 148.75C134.583 150.706 132.998 152.291 131.042 152.291Z" fill="#012970" transform="matrix(1 0 0 1 2424 1054)"/></g></g></g><g clip-path="url(#clip31)"><g clip-path="url(#clip32)"><g clip-path="url(#clip33)"><path d="M2128.94 1094.11 2103.47 1109.56 2159.5 1143.52 2184.97 1128.07Z" fill="#012970"/><path d="M2215.53 1109.56 2159.5 1075.6 2135.39 1090.2 2191.42 1124.16Z" fill="#012970"/><path d="M2103.47 1123.14 2103.47 1177.48 2156.1 1209.4 2156.1 1149.46 2103.47 1117.54Z" fill="#012970"/><path d="M2181.57 1158.8 2169.69 1165.59 2169.69 1153.71 2181.57 1146.91 2181.57 1158.8ZM2162.9 1149.46 2162.9 1209.4 2215.53 1177.48 2215.53 1117.54 2162.9 1149.46Z" fill="#012970"/></g></g></g><text fill="#7F7F7F" font-family="Nunito,Nunito_MSFontService,sans-serif" font-style="italic" font-weight="400" font-size="48" transform="matrix(1 0 0 1 1362.08 1032)">CI/CD Pipeline<tspan font-size="41" x="50.9833" y="275">Code</tspan><tspan font-size="41" x="1050.42" y="275">Release</tspan><tspan font-size="41" x="1309.87" y="277">Deployment</tspan><tspan font-size="41" x="405.749" y="279">Build</tspan><tspan font-size="41" x="735.679" y="277">Tests</tspan></text><path d="M1358.5 1244.5 2913.7 1245.32" stroke="#4472C4" stroke-width="1.14583" stroke-miterlimit="8" fill="none" fill-rule="evenodd"/><g clip-path="url(#clip34)"><g clip-path="url(#clip35)"><g clip-path="url(#clip36)"><path d="M1521.56 1672.83 1489.38 1616.88C1488.15 1614.65 1484.94 1614.65 1483.7 1616.88L1451.44 1672.83C1450.21 1675.06 1451.77 1677.77 1454.32 1677.77L1486.5 1677.77 1518.68 1677.77C1521.23 1677.77 1522.79 1675.06 1521.56 1672.83ZM1484.03 1630.04 1488.97 1630.04 1488.97 1658.84 1484.03 1658.84 1484.03 1630.04ZM1486.5 1670.36C1484.2 1670.36 1482.39 1668.55 1482.39 1666.25 1482.39 1663.95 1484.2 1662.14 1486.5 1662.14 1488.8 1662.14 1490.61 1663.95 1490.61 1666.25 1490.61 1668.55 1488.8 1670.36 1486.5 1670.36Z" stroke="#FF0000" stroke-width="0.822991"/></g></g></g><g clip-path="url(#clip37)"><g clip-path="url(#clip38)"><g clip-path="url(#clip39)"><path d="M1996.56 1667.83 1964.38 1611.87C1963.15 1609.65 1959.94 1609.65 1958.7 1611.87L1926.44 1667.83C1925.21 1670.06 1926.77 1672.77 1929.32 1672.77L1961.5 1672.77 1993.68 1672.77C1996.23 1672.77 1997.79 1670.06 1996.56 1667.83ZM1959.03 1625.04 1963.97 1625.04 1963.97 1653.84 1959.03 1653.84 1959.03 1625.04ZM1961.5 1665.36C1959.2 1665.36 1957.39 1663.55 1957.39 1661.25 1957.39 1658.95 1959.2 1657.14 1961.5 1657.14 1963.8 1657.14 1965.61 1658.95 1965.61 1661.25 1965.61 1663.55 1963.8 1665.36 1961.5 1665.36Z" stroke="#FF0000" stroke-width="0.822991"/></g></g></g><g clip-path="url(#clip40)"><g clip-path="url(#clip41)"><g clip-path="url(#clip42)"><path d="M73.6125 65 41.8438 9.75C40.625 7.55625 37.4563 7.55625 36.2375 9.75L4.3875 65C3.16875 67.1938 4.7125 69.875 7.23125 69.875L39 69.875 70.7688 69.875C73.2875 69.875 74.8313 67.1938 73.6125 65ZM36.5625 22.75 41.4375 22.75 41.4375 51.1875 36.5625 51.1875 36.5625 22.75ZM39 62.5625C36.725 62.5625 34.9375 60.775 34.9375 58.5 34.9375 56.225 36.725 54.4375 39 54.4375 41.275 54.4375 43.0625 56.225 43.0625 58.5 43.0625 60.775 41.275 62.5625 39 62.5625Z" transform="matrix(1.01282 0 0 1 1446 615)"/></g></g></g><g clip-path="url(#clip43)"><g clip-path="url(#clip44)"><g clip-path="url(#clip45)"><path d="M1493 1778.12C1475.94 1778.12 1462.11 1791.94 1462.11 1809 1462.1 1826.06 1475.93 1839.89 1492.98 1839.89 1510.04 1839.9 1523.87 1826.07 1523.88 1809.02 1523.88 1809.01 1523.88 1809.01 1523.88 1809.01 1523.88 1791.96 1510.07 1778.13 1493.02 1778.12 1493.02 1778.12 1493.01 1778.12 1493 1778.12ZM1493 1838.27C1476.84 1838.27 1463.74 1825.18 1463.73 1809.02 1463.73 1792.86 1476.82 1779.75 1492.98 1779.75 1509.14 1779.74 1522.25 1792.84 1522.25 1809 1522.25 1809 1522.25 1809.01 1522.25 1809.01 1522.23 1825.16 1509.15 1838.25 1493 1838.27Z" stroke="#000000" stroke-width="3.54546"/><path d="M1493.41 1794.79 1491.78 1794.79 1491.78 1808.19 1478.38 1808.19 1478.38 1809.81 1491.78 1809.81 1491.78 1823.23 1493.41 1823.23 1493.41 1809.81 1506.81 1809.81 1506.81 1808.19 1493.41 1808.19 1493.41 1794.79Z" stroke="#000000" stroke-width="3.54546"/></g></g></g><g clip-path="url(#clip46)"><g clip-path="url(#clip47)"><g clip-path="url(#clip48)"><path d="M42.4867 8.85416C23.9144 8.85367 8.85823 23.9091 8.8577 42.4814 8.85717 61.0537 23.9126 76.1098 42.4849 76.1103 61.0572 76.1108 76.1133 61.0554 76.1139 42.4831 76.1139 42.482 76.1139 42.4807 76.1139 42.4796 76.1207 23.9156 61.0772 8.86097 42.5132 8.85416 42.5044 8.85415 42.4955 8.85415 42.4867 8.85416ZM57.5122 53.2746 53.279 57.5077 42.4867 46.7136 31.6979 57.506 27.4647 53.2728 38.25 42.4796 27.4603 31.6873 31.6979 27.4541 42.4867 38.25 53.279 27.4541 57.5122 31.6873 46.7198 42.4796Z" transform="matrix(1.11765 0 0 1 1440 747)"/></g></g></g></g></svg>