<svg width="875" height="850" xmlns="http://www.w3.org/2000/svg" xmlns:xlink="http://www.w3.org/1999/xlink" overflow="hidden"><defs><filter id="fx0" x="-10%" y="-10%" width="120%" height="120%" filterUnits="userSpaceOnUse" primitiveUnits="userSpaceOnUse"><feComponentTransfer color-interpolation-filters="sRGB"><feFuncR type="discrete" tableValues="0 0"/><feFuncG type="discrete" tableValues="0 0"/><feFuncB type="discrete" tableValues="0 0"/><feFuncA type="linear" slope="0.14902" intercept="0"/></feComponentTransfer><feGaussianBlur stdDeviation="7.63889 7.63889"/></filter><clipPath id="clip1"><rect x="1031" y="504" width="875" height="850"/></clipPath><clipPath id="clip2"><rect x="-7" y="-7" width="891" height="864"/></clipPath><clipPath id="clip3"><rect x="0" y="0" width="876" height="850"/></clipPath><clipPath id="clip4"><rect x="1360" y="519" width="149" height="148"/></clipPath><clipPath id="clip5"><rect x="1360" y="519" width="149" height="148"/></clipPath><clipPath id="clip6"><rect x="1360" y="519" width="149" height="148"/></clipPath></defs><g clip-path="url(#clip1)" transform="translate(-1031 -504)"><g clip-path="url(#clip2)" filter="url(#fx0)" transform="translate(1030 504)"><g clip-path="url(#clip3)"><path d="M24.1982 157.49C24.1982 83.5987 84.0993 23.6976 157.991 23.6976L718.645 23.6976C792.537 23.6976 852.438 83.5987 852.438 157.49L852.438 692.645C852.438 766.537 792.537 826.438 718.645 826.438L157.991 826.438C84.0993 826.438 24.1982 766.537 24.1982 692.645Z" fill="#FFFFFF" fill-rule="evenodd"/></g></g><path d="M1053 645.169C1053 572.726 1111.73 514 1184.17 514L1733.83 514C1806.27 514 1865 572.726 1865 645.169L1865 1169.83C1865 1242.27 1806.27 1301 1733.83 1301L1184.17 1301C1111.73 1301 1053 1242.27 1053 1169.83Z" fill="#FFFFFF" fill-rule="evenodd"/><path d="M1546.5 1257C1402.08 1257 1285 1139.92 1285 995.5 1285 908.333 1285 821.167 1285 734 1372.17 734 1459.33 734 1546.5 734 1690.92 734 1808 851.078 1808 995.5 1808 1139.92 1690.92 1257 1546.5 1257Z" fill="#DAE3F3" fill-rule="evenodd"/><path d="M1198 602C1198 626.3 1178.3 646 1154 646 1129.7 646 1110 626.3 1110 602 1110 577.699 1129.7 558 1154 558 1178.3 558 1198 577.699 1198 602Z" fill="#8FAADC" fill-rule="evenodd"/><path d="M1198 720C1198 744.301 1178.3 764.001 1154 764.001 1129.7 764.001 1110 744.301 1110 720 1110 695.7 1129.7 676 1154 676 1178.3 676 1198 695.7 1198 720Z" fill="#8FAADC" fill-rule="evenodd"/><path d="M1198 838C1198 862.301 1178.3 882 1154 882 1129.7 882 1110 862.301 1110 838 1110 813.699 1129.7 794 1154 794 1178.3 794 1198 813.699 1198 838Z" fill="#8FAADC" fill-rule="evenodd"/><path d="M1287 720C1287 728.284 1280.28 735 1272 735 1263.72 735 1257 728.284 1257 720 1257 711.716 1263.72 705 1272 705 1280.28 705 1287 711.716 1287 720Z" fill="#8FAADC" fill-rule="evenodd"/><path d="M1287 837.5C1287 845.508 1280.28 852 1272 852 1263.72 852 1257 845.508 1257 837.5 1257 829.492 1263.72 823 1272 823 1280.28 823 1287 829.492 1287 837.5Z" fill="#8FAADC" fill-rule="evenodd"/><path d="M1316 602C1316 626.3 1296.3 646 1272 646 1247.7 646 1228 626.3 1228 602 1228 577.699 1247.7 558 1272 558 1296.3 558 1316 577.699 1316 602Z" fill="#8FAADC" fill-rule="evenodd"/><path d="M1449 602C1449 610.284 1442.28 617 1434 617 1425.72 617 1419 610.284 1419 602 1419 593.716 1425.72 587 1434 587 1442.28 587 1449 593.716 1449 602Z" fill="#8FAADC" fill-rule="evenodd"/><path d="M1478 720C1478 744.301 1458.3 764.001 1434 764.001 1409.7 764.001 1390 744.301 1390 720 1390 695.7 1409.7 676 1434 676 1458.3 676 1478 695.7 1478 720Z" fill="#8FAADC" fill-rule="evenodd"/><path d="M1478 838C1478 862.301 1458.3 882 1434 882 1409.7 882 1390 862.301 1390 838 1390 813.699 1409.7 794 1434 794 1458.3 794 1478 813.699 1478 838Z" fill="#8FAADC" fill-rule="evenodd"/><path d="M1566 720C1566 728.284 1559.51 735 1551.5 735 1543.49 735 1537 728.284 1537 720 1537 711.716 1543.49 705 1551.5 705 1559.51 705 1566 711.716 1566 720Z" fill="#8FAADC" fill-rule="evenodd"/><path d="M1596 602C1596 626.3 1576.08 646 1551.5 646 1526.92 646 1507 626.3 1507 602 1507 577.699 1526.92 558 1551.5 558 1576.08 558 1596 577.699 1596 602Z" fill="#8FAADC" fill-rule="evenodd"/><path d="M1645 932 1710 932 1710 1152 1645 1152Z" fill="#00B050" fill-rule="evenodd"/><path d="M1557 800 1622 800 1622 1152 1557 1152Z" fill="#00B050" fill-rule="evenodd"/><path d="M1469 932 1534 932 1534 1152 1469 1152Z" fill="#00B050" fill-rule="evenodd"/><path d="M1381 1039 1446 1039 1446 1152 1381 1152Z" fill="#00B050" fill-rule="evenodd"/><g clip-path="url(#clip4)"><g clip-path="url(#clip5)"><g clip-path="url(#clip6)"><path d="M10.7188 97.0431 10.7188 120.8 33.7335 134.75 33.7335 108.535 10.7188 94.5915 10.7188 97.0431Z" fill="#012970" transform="matrix(1 0 0 1.0068 1361 519)"/><path d="M113.267 134.75 136.281 120.8 136.281 94.5777 113.267 108.52 113.267 134.75Z" fill="#012970" transform="matrix(1 0 0 1.0068 1361 519)"/><path d="M55.3746 45.005C56.1982 44.6087 57.1007 44.404 58.0145 44.4063 61.3972 44.4054 64.1403 47.1468 64.1412 50.5296 64.142 52.8896 62.7867 55.0399 60.6575 56.0576L54.8693 58.823 72.0147 69.2126 72.0147 42.9991 49 29.057 49 48.0445Z" fill="#012970" transform="matrix(1 0 0 1.0068 1361 519)"/><path d="M74.9854 42.9838 74.9854 69.2126 92.1354 58.8215 86.3488 56.056C83.2976 54.5955 82.008 50.9381 83.4684 47.887 84.4853 45.7624 86.6302 44.4092 88.9856 44.4063 89.9002 44.4049 90.8032 44.6107 91.627 45.0081L98.0001 48.0507 98.0001 29.0417Z" fill="#012970" transform="matrix(1 0 0 1.0068 1361 519)"/><path d="M84.6001 33.6891 87.4574 31.9526 98.0001 25.5673 73.5001 10.7188 62.9574 17.1041 60.1001 18.8405 49 25.5673 73.5001 40.4158 84.6001 33.6891Z" fill="#012970" transform="matrix(1 0 0 1.0068 1361 519)"/><path d="M49.1761 97.4886 59.7188 91.1095 41.3438 79.9665 41.3438 86.8572C41.3438 90.2399 38.6015 92.9822 35.2188 92.9822 31.8361 92.9822 29.0938 90.2399 29.0938 86.8572L29.0938 79.9665 24.6761 82.6416 21.8188 84.3719 10.7188 91.1095 35.2188 105.963 46.3188 99.2251Z" fill="#012970" transform="matrix(1 0 0 1.0068 1361 519)"/><path d="M125.739 97.4886 136.281 91.1095 117.906 79.9665 117.906 86.8572C117.906 90.2399 115.164 92.9822 111.781 92.9822 108.399 92.9822 105.656 90.2399 105.656 86.8572L105.656 79.9665 101.239 82.6401 98.3814 84.3719 87.2813 91.1095 111.781 105.963 122.881 99.2251Z" fill="#012970" transform="matrix(1 0 0 1.0068 1361 519)"/><path d="M87.2813 97.0431 87.2813 114.456 91.7342 111.723C94.6176 109.953 98.3895 110.856 100.159 113.74 101.929 116.623 101.026 120.395 98.1425 122.165L93.8657 124.797 110.296 134.75 110.296 108.535 87.2813 94.5915Z" fill="#012970" transform="matrix(1 0 0 1.0068 1361 519)"/><path d="M48.7336 121.474C45.9081 119.614 45.1255 115.816 46.9855 112.99 48.8256 110.195 52.5686 109.394 55.3915 111.192L59.7188 113.994 59.7188 94.5777 36.7041 108.52 36.7041 134.75 53.5065 124.566Z" fill="#012970" transform="matrix(1 0 0 1.0068 1361 519)"/><path d="M73.4051 133.219C72.8145 133.219 72.2365 133.048 71.7407 132.727L50.3981 118.903C48.9636 118.007 48.527 116.118 49.4231 114.683 50.3192 113.249 52.2085 112.812 53.643 113.708 53.6713 113.726 53.6993 113.744 53.727 113.763L73.4495 126.536 93.3359 114.334C94.7777 113.449 96.6638 113.901 97.5484 115.343 98.433 116.785 97.9811 118.671 96.5393 119.556L75.0053 132.767C74.5237 133.062 73.97 133.219 73.4051 133.219Z" fill="#012970" transform="matrix(1 0 0 1.0068 1361 519)"/><path d="M38.2813 86.8495 38.2813 63.3525 59.336 53.2952C60.8625 52.5659 61.5085 50.7371 60.7792 49.2106 60.0499 47.6841 58.2211 47.0381 56.6946 47.7674L33.9004 58.6592C32.8354 59.1671 32.157 60.2417 32.1563 61.4216L32.1563 86.8495C32.1563 88.5409 33.5274 89.912 35.2188 89.912L35.2188 89.912C36.9102 89.912 38.2813 88.5409 38.2813 86.8495Z" fill="#012970" transform="matrix(1 0 0 1.0068 1361 519)"/><path d="M114.844 86.8495 114.844 61.4216C114.841 60.2442 114.164 59.1728 113.101 58.6653L90.3055 47.775C88.779 47.0457 86.9503 47.6917 86.2209 49.2182 85.4916 50.7448 86.1376 52.5735 87.6641 53.3029L108.719 63.3525 108.719 86.8495C108.719 88.5409 110.09 89.912 111.781 89.912 113.473 89.912 114.844 88.5409 114.844 86.8495Z" fill="#012970" transform="matrix(1 0 0 1.0068 1361 519)"/></g></g></g></g></svg>