<svg width="663" height="645" xmlns="http://www.w3.org/2000/svg" xmlns:xlink="http://www.w3.org/1999/xlink" overflow="hidden"><defs><filter id="fx0" x="-10%" y="-10%" width="120%" height="120%" filterUnits="userSpaceOnUse" primitiveUnits="userSpaceOnUse"><feComponentTransfer color-interpolation-filters="sRGB"><feFuncR type="discrete" tableValues="0 0"/><feFuncG type="discrete" tableValues="0 0"/><feFuncB type="discrete" tableValues="0 0"/><feFuncA type="linear" slope="0.14902" intercept="0"/></feComponentTransfer><feGaussianBlur stdDeviation="7.63889 7.63889"/></filter><clipPath id="clip1"><rect x="370" y="752" width="663" height="645"/></clipPath><clipPath id="clip2"><rect x="-7" y="-7" width="679" height="660"/></clipPath><clipPath id="clip3"><rect x="0" y="0" width="664" height="645"/></clipPath></defs><g clip-path="url(#clip1)" transform="translate(-370 -752)"><g clip-path="url(#clip2)" filter="url(#fx0)" transform="translate(369 752)"><g clip-path="url(#clip3)"><path d="M24.1983 123.32C24.1983 68.3 68.8005 23.6978 123.82 23.6978L540.656 23.6978C595.676 23.6978 640.278 68.3 640.278 123.32L640.278 521.796C640.278 576.815 595.676 621.417 540.656 621.417L123.82 621.417C68.8005 621.417 24.1983 576.815 24.1983 521.796Z" fill="#FFFFFF" fill-rule="evenodd"/></g></g><path d="M392 859.669C392 805.728 435.728 762 489.668 762L898.331 762C952.272 762 996 805.728 996 859.669L996 1250.33C996 1304.27 952.272 1348 898.331 1348L489.668 1348C435.728 1348 392 1304.27 392 1250.33Z" fill="#FFFFFF" fill-rule="evenodd"/><path d="M694 856C692.179 856.924 690.388 857.914 688.626 858.969 655.148 879.029 637.537 918.163 644.509 957L694 957Z" fill="#FF0000" fill-rule="evenodd"/><path d="M650 978C670.802 1025.25 726.241 1046.82 773.827 1026.16 777.232 1024.68 780.545 1023 783.751 1021.14 783.834 1021.08 783.917 1021.02 784 1020.97L784 978Z" fill="#FF0000" fill-rule="evenodd"/><path d="M653.894 799.68C654.913 799.085 655.974 798.574 657 798L535 798 535 957 574.183 957C567.611 893.531 598.754 832.067 653.894 799.68ZM555.801 818.739 583.537 818.739 583.537 846.391 555.801 846.391Z" fill="#D4EDF9" fill-rule="evenodd"/><path d="M784 1099.96 781.995 1096.54C767.155 1100.91 751.766 1103.13 736.3 1103.11 694.986 1103.02 655.232 1087.27 625 1059L625 1137 784 1137Z" fill="#D4EDF9" fill-rule="evenodd"/><path d="M835.94 1216.07 801.633 1158 715 1158 715 1317 868 1317 868 1240.65C854.519 1236.88 843.029 1228.07 835.94 1216.07ZM763.682 1206.39 735.864 1206.39 735.864 1178.74 763.682 1178.74Z" fill="#D4EDF9" fill-rule="evenodd"/><path d="M535 1317 694 1317 694 1158 535 1158ZM555.739 1178.74 583.391 1178.74 583.391 1206.39 555.739 1206.39Z" fill="#D4EDF9" fill-rule="evenodd"/><path d="M604 1035.88C600.986 1031.73 598.089 1027.46 595.47 1022.99 587.226 1008.98 581.132 993.817 577.392 978L445 978 445 1137 604 1137ZM493.392 1026.39 465.739 1026.39 465.739 998.739 493.392 998.739Z" fill="#D4EDF9" fill-rule="evenodd"/><path d="M859.546 868.424C819.735 800.564 732.403 777.799 664.485 817.575 596.567 857.351 573.781 944.608 613.592 1012.47 649.72 1074.05 725.892 1099.4 791.762 1071.76L809.266 1101.53C804.559 1111.53 805.099 1123.22 810.708 1132.75L853.67 1205.79C863.258 1221.65 883.9 1226.74 899.775 1217.16 915.379 1207.75 920.615 1187.62 911.573 1171.8L868.61 1098.76C863.011 1089.24 853.076 1083.08 842.049 1082.3L824.546 1052.53C880.624 1008.53 895.57 929.908 859.546 868.424ZM637.629 998.695C605.501 944.065 623.78 873.757 678.457 841.656 733.135 809.555 803.505 827.819 835.633 882.448 867.762 937.078 849.483 1007.39 794.806 1039.49 794.805 1039.49 794.805 1039.49 794.804 1039.49 740.116 1071.51 669.805 1053.26 637.629 998.695Z" fill="#282F73" fill-rule="evenodd"/></g></svg>