<svg width="1294" height="386" xmlns="http://www.w3.org/2000/svg" xmlns:xlink="http://www.w3.org/1999/xlink" overflow="hidden"><defs><clipPath id="clip0"><rect x="157" y="410" width="1294" height="386"/></clipPath></defs><g clip-path="url(#clip0)" transform="translate(-157 -410)"><path d="M347.864 516.984C335.044 516.984 324.652 543.854 324.652 577 324.652 610.146 335.044 637.016 347.864 637.016 360.684 637.016 371.077 610.146 371.077 577 371.077 543.854 360.684 516.984 347.864 516.984ZM334 468C359.405 468 380 516.801 380 577 380 637.199 359.405 686 334 686 308.595 686 288 637.199 288 577 288 516.801 308.595 468 334 468Z" fill="#333F50" fill-rule="evenodd"/><text fill="#333F50" font-family="Cera Pro,Cera Pro_MSFontService,sans-serif" font-weight="700" font-size="183" transform="matrix(1 0 0 1 431.629 641)">logsight.ai</text><path d="M247.552 458.687C247.477 455.458 231.613 464.429 224.326 468.591 217.039 472.754 210.208 478.208 203.832 483.663 197.456 489.117 192.371 492.778 186.071 501.318 179.771 509.859 170.587 525.648 166.033 534.906 161.478 544.165 160.188 548.973 158.746 556.868 157.304 564.762 156.469 572.011 157.38 582.274 158.29 592.537 160.416 607.752 164.211 618.446 168.006 629.14 174.837 638.541 180.151 646.436 185.464 654.331 189.866 659.57 196.09 665.814 202.314 672.058 208.69 678.23 217.495 683.9 226.3 689.569 247.477 701.555 248.919 699.832 250.361 698.11 232.22 682.321 226.148 673.565 220.075 664.809 216.964 659.929 212.485 647.297 208.007 634.666 201.327 612.92 199.278 597.776 197.229 582.633 198.443 569.571 200.189 556.437 201.935 543.303 205.654 530.385 209.753 518.973 213.851 507.562 218.709 497.73 224.781 487.969 230.854 478.208 247.628 461.917 247.552 458.687Z" fill="#333F50" fill-rule="evenodd"/><path d="M307.298 494.189C308.597 491.641 304.944 481.578 300.965 475.846 296.987 470.113 288.949 462.534 283.427 459.795 277.906 457.057 272.954 457.885 267.838 459.413 262.723 460.942 257.364 463.999 252.736 468.967 248.108 473.935 243.967 479.986 240.07 489.221 236.173 498.456 232.194 507.436 229.353 524.378 226.511 541.32 222.695 571.128 223.019 590.872 223.344 610.616 227.485 628.004 231.301 642.844 235.117 657.684 240.151 670.741 245.916 679.912 251.681 689.084 260.368 694.625 265.89 697.873 271.411 701.121 275.389 699.784 279.043 699.402 282.697 699.02 284.97 697.682 287.812 695.58 290.654 693.479 293.739 689.848 296.094 686.791 298.448 683.734 299.991 680.677 301.94 677.237 303.888 673.798 307.055 669.021 307.786 666.155 308.516 663.289 307.217 660.805 306.324 660.041 305.431 659.276 304.457 660.55 302.427 661.569 300.397 662.588 297.312 665.773 294.145 666.155 290.978 666.537 286.838 665.773 283.427 663.862 280.017 661.951 277.013 659.913 273.684 654.691 270.355 649.468 266.296 643.354 263.454 632.526 260.612 621.698 257.527 602.719 256.634 589.726 255.74 576.732 257.04 565.268 258.095 554.568 259.151 543.868 260.693 533.805 262.967 525.525 265.24 517.245 267.838 510.366 271.736 504.889 275.633 499.411 282.778 494.953 286.35 492.66 289.923 490.367 290.004 490.495 293.171 491.131 296.337 491.768 305.999 496.736 307.298 494.189Z" fill="#333F50" fill-rule="evenodd"/><path d="M388 580C388 565.088 394.268 553 402 553 409.732 553 416 565.088 416 580 416 594.912 409.732 607 402 607 394.268 607 388 594.912 388 580Z" fill="#333F50" fill-rule="evenodd"/></g></svg>