<svg width="1302" height="386" xmlns="http://www.w3.org/2000/svg" xmlns:xlink="http://www.w3.org/1999/xlink" xml:space="preserve" overflow="hidden"><defs><clipPath id="clip0"><rect x="1065" y="843" width="1302" height="386"/></clipPath></defs><g clip-path="url(#clip0)" transform="translate(-1065 -843)"><path d="M1256.86 949.984C1244.04 949.984 1233.65 976.854 1233.65 1010 1233.65 1043.15 1244.04 1070.02 1256.86 1070.02 1269.68 1070.02 1280.08 1043.15 1280.08 1010 1280.08 976.854 1269.68 949.984 1256.86 949.984ZM1243 901C1268.41 901 1289 949.801 1289 1010 1289 1070.2 1268.41 1119 1243 1119 1217.59 1119 1197 1070.2 1197 1010 1197 949.801 1217.59 901 1243 901Z" fill="#333F50" fill-rule="evenodd"/><text fill="#333F50" font-family="Arial,Arial_MSFontService,sans-serif" font-weight="700" font-size="183" transform="matrix(1 0 0 1 1340.28 1077)">logsight.ai</text><path d="M1156.54 891.687C1156.46 888.458 1140.42 897.429 1133.06 901.591 1125.69 905.754 1118.79 911.209 1112.34 916.663 1105.9 922.117 1100.76 925.778 1094.39 934.318 1088.02 942.859 1078.73 958.648 1074.13 967.906 1069.53 977.165 1068.22 981.973 1066.76 989.868 1065.31 997.763 1064.46 1005.01 1065.38 1015.27 1066.3 1025.54 1068.45 1040.75 1072.29 1051.45 1076.13 1062.14 1083.03 1071.54 1088.4 1079.44 1093.77 1087.33 1098.22 1092.57 1104.52 1098.81 1110.81 1105.06 1117.25 1111.23 1126.15 1116.9 1135.05 1122.57 1156.46 1134.55 1157.92 1132.83 1159.38 1131.11 1141.04 1115.32 1134.9 1106.56 1128.76 1097.81 1125.62 1092.93 1121.09 1080.3 1116.56 1067.67 1109.81 1045.92 1107.74 1030.78 1105.67 1015.63 1106.89 1002.57 1108.66 989.437 1110.42 976.303 1114.18 963.385 1118.33 951.974 1122.47 940.562 1127.38 930.73 1133.52 920.969 1139.66 911.209 1156.61 894.917 1156.54 891.687Z" fill="#333F50" fill-rule="evenodd"/><path d="M1216.29 927.189C1217.6 924.641 1213.91 914.578 1209.88 908.846 1205.86 903.113 1197.72 895.534 1192.14 892.795 1186.55 890.057 1181.54 890.885 1176.37 892.413 1171.19 893.942 1165.77 896.999 1161.09 901.967 1156.4 906.935 1152.21 912.986 1148.27 922.221 1144.33 931.456 1140.3 940.437 1137.43 957.378 1134.55 974.32 1130.69 1004.13 1131.02 1023.87 1131.35 1043.62 1135.54 1061 1139.4 1075.84 1143.26 1090.68 1148.35 1103.74 1154.19 1112.91 1160.02 1122.08 1168.81 1127.63 1174.39 1130.87 1179.98 1134.12 1184.01 1132.78 1187.7 1132.4 1191.4 1132.02 1193.7 1130.68 1196.57 1128.58 1199.45 1126.48 1202.57 1122.85 1204.95 1119.79 1207.34 1116.73 1208.9 1113.68 1210.87 1110.24 1212.84 1106.8 1216.04 1102.02 1216.78 1099.16 1217.52 1096.29 1216.21 1093.81 1215.3 1093.04 1214.4 1092.28 1213.41 1093.55 1211.36 1094.57 1209.31 1095.59 1206.19 1098.77 1202.98 1099.16 1199.78 1099.54 1195.59 1098.77 1192.14 1096.86 1188.69 1094.95 1185.65 1092.91 1182.28 1087.69 1178.91 1082.47 1174.8 1076.35 1171.93 1065.53 1169.05 1054.7 1165.93 1035.72 1165.03 1022.73 1164.13 1009.73 1165.44 998.268 1166.51 987.568 1167.58 976.868 1169.14 966.805 1171.44 958.525 1173.74 950.245 1176.37 943.366 1180.31 937.889 1184.25 932.411 1191.48 927.953 1195.1 925.66 1198.71 923.367 1198.79 923.495 1202 924.132 1205.2 924.768 1214.98 929.736 1216.29 927.189Z" fill="#333F50" fill-rule="evenodd"/><path d="M1297 1013C1297 998.088 1303.27 986 1311 986 1318.73 986 1325 998.088 1325 1013 1325 1027.91 1318.73 1040 1311 1040 1303.27 1040 1297 1027.91 1297 1013Z" fill="#333F50" fill-rule="evenodd"/></g></svg>