<svg width="663" height="645" xmlns="http://www.w3.org/2000/svg" xmlns:xlink="http://www.w3.org/1999/xlink" overflow="hidden"><defs><filter id="fx0" x="-10%" y="-10%" width="120%" height="120%" filterUnits="userSpaceOnUse" primitiveUnits="userSpaceOnUse"><feComponentTransfer color-interpolation-filters="sRGB"><feFuncR type="discrete" tableValues="0 0"/><feFuncG type="discrete" tableValues="0 0"/><feFuncB type="discrete" tableValues="0 0"/><feFuncA type="linear" slope="0.14902" intercept="0"/></feComponentTransfer><feGaussianBlur stdDeviation="7.63889 7.63889"/></filter><clipPath id="clip1"><rect x="1053" y="754" width="663" height="645"/></clipPath><clipPath id="clip2"><rect x="-7" y="-7" width="679" height="660"/></clipPath><clipPath id="clip3"><rect x="0" y="0" width="664" height="645"/></clipPath><clipPath id="clip4"><rect x="1241" y="922" width="271" height="265"/></clipPath><clipPath id="clip5"><rect x="1241" y="922" width="271" height="265"/></clipPath><clipPath id="clip6"><rect x="1241" y="922" width="271" height="265"/></clipPath></defs><g clip-path="url(#clip1)" transform="translate(-1053 -754)"><g clip-path="url(#clip2)" filter="url(#fx0)" transform="translate(1052 754)"><g clip-path="url(#clip3)"><path d="M24.1982 123.32C24.1982 68.3 68.8005 23.6978 123.82 23.6978L540.656 23.6978C595.676 23.6978 640.278 68.3 640.278 123.32L640.278 521.796C640.278 576.815 595.676 621.417 540.656 621.417L123.82 621.417C68.8005 621.417 24.1982 576.815 24.1982 521.796Z" fill="#FFFFFF" fill-rule="evenodd"/></g></g><path d="M1075 861.669C1075 807.728 1118.73 764 1172.67 764L1581.33 764C1635.27 764 1679 807.728 1679 861.669L1679 1252.33C1679 1306.27 1635.27 1350 1581.33 1350L1172.67 1350C1118.73 1350 1075 1306.27 1075 1252.33Z" fill="#FFFFFF" fill-rule="evenodd"/><path d="M1158.34 1002 1158.34 815 1228.5 815 1228.5 872.75 1298.66 872.75 1298.66 1002 1158.34 1002ZM1245.34 821.875 1280.42 856.25 1245.34 856.25 1245.34 821.875ZM1245.34 798.5 1141.5 798.5 1141.5 1018.5 1315.5 1018.5 1315.5 859 1245.34 798.5Z" stroke="#D4EDF9" stroke-width="2.75722" stroke-miterlimit="8" fill="#282F73" fill-rule="evenodd"/><path d="M1175.5 899.5 1281.5 899.5 1281.5 910.5 1175.5 910.5Z" stroke="#D4EDF9" stroke-width="2.75722" stroke-miterlimit="8" fill="#5FA9DD" fill-rule="evenodd"/><path d="M1175.5 877.5 1211.5 877.5 1211.5 888.5 1175.5 888.5Z" stroke="#D4EDF9" stroke-width="2.75722" stroke-miterlimit="8" fill="#5FA9DD" fill-rule="evenodd"/><path d="M1175.5 921.5 1281.5 921.5 1281.5 932.5 1175.5 932.5Z" stroke="#D4EDF9" stroke-width="2.75722" stroke-miterlimit="8" fill="#5FA9DD" fill-rule="evenodd"/><path d="M1175.5 943.5 1281.5 943.5 1281.5 954.5 1175.5 954.5Z" stroke="#D4EDF9" stroke-width="2.75722" stroke-miterlimit="8" fill="#5FA9DD" fill-rule="evenodd"/><path d="M1175.5 965.5 1281.5 965.5 1281.5 976.5 1175.5 976.5Z" stroke="#D4EDF9" stroke-width="2.75722" stroke-miterlimit="8" fill="#5FA9DD" fill-rule="evenodd"/><path d="M1455.34 1301 1455.34 1114 1525.5 1114 1525.5 1171.75 1595.66 1171.75 1595.66 1301 1455.34 1301ZM1542.34 1120.88 1577.42 1155.25 1542.34 1155.25 1542.34 1120.88ZM1542.34 1097.5 1438.5 1097.5 1438.5 1317.5 1612.5 1317.5 1612.5 1158 1542.34 1097.5Z" stroke="#D4EDF9" stroke-width="2.75722" stroke-miterlimit="8" fill="#282F73" fill-rule="evenodd"/><path d="M1472.5 1199.5 1578.5 1199.5 1578.5 1210.5 1472.5 1210.5Z" stroke="#D4EDF9" stroke-width="2.75722" stroke-miterlimit="8" fill="#BD7FB7" fill-rule="evenodd"/><path d="M1472.5 1177.5 1508.5 1177.5 1508.5 1188.5 1472.5 1188.5Z" stroke="#D4EDF9" stroke-width="2.75722" stroke-miterlimit="8" fill="#BD7FB7" fill-rule="evenodd"/><path d="M1472.5 1221.5 1578.5 1221.5 1578.5 1232.5 1472.5 1232.5Z" stroke="#FF0000" stroke-width="2.75722" stroke-miterlimit="8" fill="#FF0000" fill-rule="evenodd"/><path d="M1472.5 1243.5 1578.5 1243.5 1578.5 1254.5 1472.5 1254.5Z" stroke="#D4EDF9" stroke-width="2.75722" stroke-miterlimit="8" fill="#BD7FB7" fill-rule="evenodd"/><path d="M1472.5 1265.5 1578.5 1265.5 1578.5 1276.5 1472.5 1276.5Z" stroke="#D4EDF9" stroke-width="2.75722" stroke-miterlimit="8" fill="#BD7FB7" fill-rule="evenodd"/><path d="M1221 1058C1221 973.501 1290.62 905 1376.5 905 1462.38 905 1532 973.501 1532 1058 1532 1142.5 1462.38 1211 1376.5 1211 1290.62 1211 1221 1142.5 1221 1058Z" fill="#EAF4F8" fill-rule="evenodd"/><g clip-path="url(#clip4)"><g clip-path="url(#clip5)"><g clip-path="url(#clip6)"><path d="M132 165C113.85 165 99 150.15 99 132 99 113.85 113.85 99 132 99 150.15 99 165 113.85 165 132 165 150.15 150.15 165 132 165ZM206.25 111.375C204.6 105.325 202.125 99.55 199.1 94.325L205.975 73.7 190.3 58.025 169.675 64.9C164.175 61.875 158.4 59.4 152.35 57.75L143 38.5 121 38.5 111.375 57.75C105.325 59.4 99.55 61.875 94.325 64.9L73.7 58.025 58.025 73.7 64.9 94.325C61.875 99.825 59.4 105.6 57.75 111.65L38.5 121 38.5 143 57.75 152.625C59.4 158.675 61.875 164.45 64.9 169.675L58.025 190.3 73.7 205.975 94.325 199.1C99.825 202.125 105.6 204.6 111.65 206.25L121.275 225.5 143.275 225.5 152.9 206.25C158.95 204.6 164.725 202.125 169.95 199.1L190.575 205.975 206.25 190.3 199.375 169.675C202.4 164.175 204.875 158.4 206.525 152.35L225.775 142.725 225.775 120.725 206.25 111.375Z" stroke="#282F73" stroke-width="2.75" fill="#282F73" transform="matrix(1.01894 0 0 1 1242 923)"/></g></g></g></g></svg>