<svg width="220" height="130" viewBox="0 0 220 130" fill="none" xmlns="http://www.w3.org/2000/svg">
<rect width="220" height="130" fill="white"/>
<path fill-rule="evenodd" clip-rule="evenodd" d="M108.832 48.53H90.3711V20H92.0493C101.318 20 108.832 27.5135 108.832 36.7824V48.53Z" fill="#FEC514"/>
<path fill-rule="evenodd" clip-rule="evenodd" d="M107.991 66.1515H108.83V48.53H90.3691C90.3691 58.2621 98.2585 66.1515 107.991 66.1515" fill="#343741"/>
<path fill-rule="evenodd" clip-rule="evenodd" d="M113.025 66.1515H128.969V48.53H113.025V66.1515Z" fill="#00BFB3"/>
<path fill-rule="evenodd" clip-rule="evenodd" d="M71.8489 98.8771V95.8311H64.3304V81.2556H61V98.8771H71.8489ZM79.5437 99.2547C83.0002 99.2547 85.9017 96.8884 85.9017 92.8858C85.9017 88.8328 83.0002 86.4917 79.5437 86.4917C76.0872 86.4917 73.1857 88.8328 73.1857 92.8858C73.1857 96.9135 76.0872 99.2547 79.5437 99.2547ZM76.367 92.8858C76.367 95.0507 77.679 96.4856 79.546 96.4856C81.413 96.4856 82.6998 95.0507 82.6998 92.8858C82.6998 90.6957 81.413 89.2859 79.546 89.2859C77.679 89.2859 76.367 90.6957 76.367 92.8858ZM93.5977 103.912C97.3822 103.912 99.5268 101.646 99.5268 97.6184V86.8693H96.4487V88.128H96.3478C95.6918 87.2721 94.7835 86.4917 92.9165 86.4917C90.1412 86.4917 87.5172 88.6818 87.5172 92.483C87.5172 96.259 90.0907 98.4743 92.9417 98.4743C94.5817 98.4743 95.7927 97.8198 96.373 96.7625V98.3484C96.373 100.337 95.3133 101.394 93.6734 101.394C92.3866 101.394 91.3018 100.74 91.0747 99.8589L87.8705 100.564C88.476 102.578 90.6962 103.912 93.5977 103.912ZM90.6966 92.4829C90.6966 94.5723 92.0338 95.7303 93.5729 95.7303C95.2885 95.7303 96.4995 94.4717 96.4995 92.4829C96.4995 90.4691 95.2885 89.2356 93.5729 89.2356C92.0338 89.2356 90.6966 90.3684 90.6966 92.4829ZM106.844 99.2547C109.796 99.2547 111.789 97.6688 111.789 95.2269C111.789 92.3833 109.562 91.9272 107.729 91.5517C106.446 91.2889 105.356 91.0656 105.356 90.0915C105.356 89.4118 105.911 88.8832 106.895 88.8832C107.853 88.8832 108.61 89.4118 108.762 90.1922L111.714 89.5629C111.209 87.7252 109.292 86.4917 106.819 86.4917C104.069 86.4917 102.202 88.0273 102.202 90.3181C102.202 93.1859 104.443 93.6417 106.28 94.0153C107.555 94.2746 108.636 94.4942 108.636 95.4535C108.636 96.3346 108.005 96.9135 106.92 96.9135C105.81 96.9135 104.876 96.3094 104.624 95.378L101.697 95.9318C102.353 98.0464 104.246 99.2547 106.844 99.2547ZM121.15 98.8016C120.721 98.9778 119.989 99.1289 119.081 99.1289C116.558 99.1289 114.741 98.0716 114.741 94.8997V89.5629H112.672V86.8694H114.741V83.6975L117.92 83.0682V86.8694H121.023V89.5629H117.92V94.3963C117.92 96.0074 118.526 96.5108 119.711 96.5108C120.191 96.5108 120.544 96.4101 120.822 96.2843L121.15 98.8016ZM126.674 99.2295C128.112 99.2295 129.551 98.6002 130.131 97.6939H130.232V98.8771H133.234V91.2747C133.234 88.2035 131.443 86.4917 128.239 86.4917C125.489 86.4917 123.521 87.7504 122.814 89.9405L125.993 90.1922C126.271 89.5377 126.952 89.0091 128.037 89.0091C129.324 89.0091 130.08 89.7643 130.08 91.0733V91.9544C129.677 91.7278 128.642 91.5012 127.608 91.5012C124.404 91.5012 122.461 92.9865 122.461 95.4787C122.461 97.6688 124.202 99.2295 126.674 99.2295ZM125.666 95.2269C125.666 96.1583 126.372 96.7625 127.584 96.7625C128.946 96.7625 130.132 95.9317 130.132 95.0003V94.2199C129.779 93.9179 128.896 93.6913 127.962 93.6913C126.499 93.6913 125.666 94.2955 125.666 95.2269ZM140.373 99.2547C143.325 99.2547 145.318 97.6688 145.318 95.2269C145.318 92.3833 143.091 91.9272 141.258 91.5517C139.975 91.2889 138.884 91.0656 138.884 90.0915C138.884 89.4118 139.44 88.8832 140.424 88.8832C141.382 88.8832 142.139 89.4118 142.291 90.1922L145.242 89.5629C144.738 87.7252 142.82 86.4917 140.348 86.4917C137.598 86.4917 135.731 88.0273 135.731 90.3181C135.731 93.1859 137.972 93.6417 139.809 94.0153C141.084 94.2746 142.164 94.4942 142.164 95.4535C142.164 96.3346 141.534 96.9135 140.449 96.9135C139.339 96.9135 138.405 96.3094 138.153 95.378L135.226 95.9318C135.882 98.0464 137.774 99.2547 140.373 99.2547ZM150.619 91.9796V98.8771H147.44V81.2557H150.619V88.2035C151.249 87.2973 152.612 86.4917 154.126 86.4917C156.724 86.4917 158.339 88.2539 158.339 91.1992V98.8771H155.16V91.7782C155.16 90.1167 154.428 89.286 153.142 89.286C151.754 89.286 150.619 90.3685 150.619 91.9796Z" fill="#343741"/>
</svg>
