<svg id="Layer_1" data-name="Layer 1" xmlns="http://www.w3.org/2000/svg" viewBox="0 0 253 300"><defs><style>.cls-1{fill:#1c1e23;}</style></defs><title>logo-elastic-vertical-dark-ink</title><g id="logo-elastic-vertical-dark-ink"><path class="cls-1" d="M228.29,106.24a40.06,40.06,0,0,0-26.5-37.78,56.76,56.76,0,0,0,1.07-10.94A57.5,57.5,0,0,0,98.73,23.86,30.53,30.53,0,0,0,51.42,58.64,40.59,40.59,0,0,0,24.71,96.57a40.11,40.11,0,0,0,26.62,37.9,58.19,58.19,0,0,0-1,10.93,57.34,57.34,0,0,0,104,33.43,30.49,30.49,0,0,0,47.34-34.65A40.59,40.59,0,0,0,228.29,106.24ZM103.53,30a50.26,50.26,0,0,1,90.71,38.28L149.3,107.64l-44.55-20.3-8.7-18.57ZM81,25a24.09,24.09,0,0,1,14.62,4.94L88.88,64.63,58.36,57.42A24.17,24.17,0,0,1,81,25ZM32.58,96.66a34,34,0,0,1,23.13-32l33.5,7.91,7.86,16.81L54.24,128.12A33.66,33.66,0,0,1,32.58,96.66Zm117.09,76.19a50.35,50.35,0,0,1-92-28.31,51.22,51.22,0,0,1,1-10L102.47,94.9l44.72,20.38,9.9,18.92Zm22.38,5a23.91,23.91,0,0,1-14.55-5l6.64-34.58,30.5,7.13a24.16,24.16,0,0,1-22.59,32.43Zm25.24-39.71-33.58-7.85-8.92-17,43.92-38.48a33.59,33.59,0,0,1,21.71,31.4A34,34,0,0,1,197.29,138.12Z"/><path class="cls-1" d="M35.91,292.76l2.88-.3.19,5.85a142,142,0,0,1-19.34,1.59q-10.71,0-15.18-6.2T0,274.41q0-26.1,20.73-26.09,10,0,15,5.6t5,17.61l-.4,5.65H7.54q0,8.24,3,12.21t10.36,4Q28.28,293.35,35.91,292.76Zm-2.68-21.53q0-9.12-2.93-12.89t-9.52-3.77q-6.6,0-9.92,4T7.44,271.23Z"/><path class="cls-1" d="M51.05,299.52V234.23h7.44v65.29Z"/><path class="cls-1" d="M105.34,264.29v25c0,2.48,6.17,2.38,6.17,2.38l-.38,6.57c-5.22,0-9.55.44-12.15-2.08a43.15,43.15,0,0,1-17.85,3.72q-6.84,0-10.41-3.87t-3.57-11.11q0-7.23,3.67-10.66T82.32,270l15.58-1.49v-4.26c0-3.37-.73-5.79-2.18-7.24a8,8,0,0,0-6-2.19l-19.54,0v-6.56h19q8.43,0,12.25,3.87T105.34,264.29ZM74.79,284.53q0,9.12,7.53,9.12a40.21,40.21,0,0,0,13.3-2.28l2.28-.79V274.21L83.22,275.6q-4.47.39-6.45,2.58T74.79,284.53Z"/><path class="cls-1" d="M134.38,255q-10.81,0-10.82,7.54,0,3.48,2.48,4.91t11.31,3q8.84,1.55,12.5,4.31t3.67,10.42q0,7.63-4.91,11.21t-14.33,3.57c-4.1,0-17.79-1.52-17.79-1.52l.4-6.45c7.86.76,13.55,1.32,17.39,1.32s6.76-.61,8.78-1.83,3-3.27,3-6.15-.86-4.83-2.58-5.85-5.49-2-11.31-2.93-10-2.28-12.4-4.07-3.67-5.09-3.67-9.92,1.71-8.39,5.11-10.71A22.23,22.23,0,0,1,134,248.32c4,0,18,1,18,1v6.49C144.65,255.49,138.61,255,134.38,255Z"/><path class="cls-1" d="M189.4,255.76H173.63v23.71q0,8.52,1.24,11.21c.83,1.78,2.79,2.67,5.9,2.67l8.83-.59.5,6.15A67.54,67.54,0,0,1,180,300q-7.74,0-10.71-3.77t-3-14.38V255.76h-7v-6.45h7V234.13h7.34v15.18H189.4Z"/><path class="cls-1" d="M199.75,243v-8.63h7.44V243Zm0,56.55V249.31h7.44v50.21Z"/><path class="cls-1" d="M239.41,248.32a84.49,84.49,0,0,1,11.11,1.19l2.38.3-.29,6.05a115.78,115.78,0,0,0-11.71-.9q-8.43,0-11.46,4t-3,14.88q0,10.86,2.82,15.13T241,293.25l11.7-.89.3,6.15a101.26,101.26,0,0,1-13.79,1.39q-11.6,0-16-5.95t-4.41-20.09q0-14.13,4.76-19.84T239.41,248.32Z"/></g></svg>