<svg id="Logo" xmlns="http://www.w3.org/2000/svg" viewBox="0 0 1872.62 709.97">
  <defs>
    <style>
      .cls-1 {
        fill: #010101;
      }
    </style>
  </defs>
  <g id="KIEZ_Black" data-name="KIEZ Black">
    <circle class="cls-1" cx="583.51" cy="287.28" r="31.18"/>
    <path d="M832.3,264.1a23.18,23.18,0,1,1-23.18,23.18A23.21,23.21,0,0,1,832.3,264.1m0-8a31.18,31.18,0,1,0,31.18,31.18A31.18,31.18,0,0,0,832.3,256.1Z"/>
    <circle class="cls-1" cx="1273.28" cy="287.28" r="31.18"/>
    <g>
      <path class="cls-1" d="M251.79,509.78c4.82,0,9.33,4,9.33,10.05,0,14.64-15.29,32.09-29.2,32.09a20.05,20.05,0,0,1-14-6l16-42,0,0c1.61-4.19-1.93-6.11-7.72-5.39l.16-3,17.53-1.85L225.4,539.3l.92.38c11.93-20,18.85-29.9,25.46-29.9ZM232.08,547.9c11,0,23.16-16.32,23.16-27.1,0-3.14-2-5.87-5.46-5.87-5.41,0-11.8,9.61-25.21,30.61a16.52,16.52,0,0,0,7.51,2.36Z"/>
      <path class="cls-1" d="M299.68,508.81c3.38,0,4.59,3.94,4.59,9.89,0,26.51-24.45,49.31-40.78,49.31-5,0-8.36-2.25-8.36-5.23,0-2.49,2-3.7,4.18-3.7,3.94,0,3.38,3.46,8.28,3.46,3.91,0,10.42-2.79,16-7.56l-5.33-35.55c-.48-3.21-1.37-4.18-2.66-4.18-1.93,0-5.79,5.47-9.17,11.66l-1.52-1.21c5-10.45,9.08-15.92,12.95-15.92,3.21,0,5.05,2.58,5.35,5.49L287,550.56l.8.28c.47-.56.93-1.14,1.37-1.73C294.36,542,299,532,299,522.81c0-2.82-3.21-5.15-3.21-9.41,0-1.93,1.2-4.59,3.94-4.59Z"/>
      <path class="cls-1" d="M380.39,497.88l-6.62,18.35h-4l2.88-11.34a22.13,22.13,0,0,0-11.35-3.3c-7.31,0-13.11,3.6-13.11,9.25,0,3.48,2.75,6,9.74,11.14,8.15,6,11.76,9.86,11.76,15.62,0,8.15-6.5,14.2-17.8,14.2-10.45,0-20.09-5.76-24.73-12.51l4.41-11.86h3.95l-2.69,10.73a26.05,26.05,0,0,0,19.09,9c7.22,0,12.13-3.49,12.13-8.79,0-4-2.69-6.59-9.83-12.17-7.3-5.7-11.68-9.23-11.68-14.45,0-8.06,7.65-14.76,17.88-14.76a24,24,0,0,1,13.77,4.19l1.94-3.25Z"/>
      <path class="cls-1" d="M393.75,547.42c5.63,0,12.71-4.26,17.22-10.21l1.52,1.2c-4.82,8.53-12.46,13.51-20.42,13.51-7.4,0-12.63-4.74-12.63-12.38,0-13.43,13-29.76,26.22-29.76,5.55,0,10,3.46,10,8,0,6-7.64,12.07-12.87,12.07-2.57,0-4.18-1.37-4.18-3.38a3.13,3.13,0,0,1,3.38-3.38c2,0,3.38,1.3,3.46,3.76,2.67-2,4.66-5,4.66-7.78s-2.65-5.31-6-5.31c-8.93,0-19.06,15.12-19.06,25.34,0,5.22,3.54,8.28,8.6,8.28Z"/>
      <path class="cls-1" d="M431.36,551.92c-4.27,0-7-4.26-5.72-8.52l8.93-24.53c.94-2.58.4-4-1-4-2.09,0-7.72,5.55-12.71,12.3l-1.53-1.2c6.6-11,12.39-16.17,16.49-16.17a5.26,5.26,0,0,1,5,7.4l-9.41,25.09c-1,2.67-.17,4.35,1.93,4.35,2.89,0,7.56-4.43,13.27-11.75l1.52,1.21c-5.46,9.41-11.82,15.84-16.72,15.84Zm6.94-52.68a5.55,5.55,0,1,1,5.54,5.55A5.56,5.56,0,0,1,438.3,499.24Z"/>
      <path class="cls-1" d="M467.7,547.42c4.9,0,12.54-4.42,16.81-10.21l1.61,1.2c-4.67,8.21-12.39,13.52-20.43,13.52-7.08,0-12.71-4.67-12.71-12.39,0-13.67,13.83-29.76,25.66-29.76,4.82,0,10,2.74,10,7.72,0,9.42-15,15.1-29.62,19a17.92,17.92,0,0,0-.22,2.68c0,4.82,2.82,8.28,8.93,8.28Zm9.81-33.94c-6.93,0-15.1,10.5-17.81,19.82,9.16-2.64,23.36-7.38,23.36-14.43a5.68,5.68,0,0,0-5.55-5.39Z"/>
      <path class="cls-1" d="M540.32,536.08c-5.55,10-12.39,15.84-16.89,15.84-4.1,0-7.21-3.76-5.47-7.31l11.34-23.17c2.13-4.36,1.29-6.51-1.53-6.51-3.92,0-13.18,11.87-26.28,32.45l-1.55,4.55-6-1,12.39-31.37c1.15-2.91.8-4.5-.57-4.5-2.17,0-8,5.55-12.78,11.82l-1.53-1.2c6.83-10.78,12.38-15.93,16.65-15.93a4.6,4.6,0,0,1,4.42,6.27l-9.65,24.13,1,.41c12.39-20.19,20.35-30.81,26.63-30.81,5.38,0,8.1,5.46,5.46,10.38L523.67,543c-1.14,2.12-.24,4,2,4,2.41,0,7.32-4.67,13.11-12.15Z"/>
      <path class="cls-1" d="M559.6,547.42c5.63,0,12.7-4.26,17.21-10.21l1.53,1.2c-4.83,8.53-12.47,13.51-20.43,13.51-7.4,0-12.63-4.74-12.63-12.38,0-13.43,13-29.76,26.22-29.76,5.55,0,10,3.46,10,8,0,6-7.64,12.07-12.86,12.07-2.58,0-4.19-1.37-4.19-3.38a3.13,3.13,0,0,1,3.38-3.38c2,0,3.38,1.3,3.46,3.76,2.67-2,4.66-5,4.66-7.78s-2.65-5.31-6-5.31c-8.93,0-19.06,15.12-19.06,25.34,0,5.22,3.54,8.28,8.6,8.28Z"/>
      <path class="cls-1" d="M600.57,547.42c4.9,0,12.54-4.42,16.81-10.21l1.6,1.2c-4.66,8.21-12.38,13.52-20.43,13.52-7.07,0-12.7-4.67-12.7-12.39,0-13.67,13.83-29.76,25.65-29.76,4.83,0,10,2.74,10,7.72,0,9.42-15,15.1-29.62,19a17.92,17.92,0,0,0-.22,2.68c0,4.82,2.82,8.28,8.93,8.28Zm9.81-33.94c-6.93,0-15.1,10.5-17.81,19.82,9.16-2.64,23.36-7.38,23.36-14.43a5.68,5.68,0,0,0-5.55-5.39Z"/>
      <path class="cls-1" d="M685.92,547.24c2.35,0,7-4,12.47-12.34l1.53,1.21c-2.44,4.72-9.49,15.82-16.62,15.82-3.28,0-5.21-2-8.52-6.24-6.4,4.68-11.94,6.23-17.39,6.23-8.41,0-13.35-3.68-13.35-10,0-8,7.77-13.89,16.6-17.38l.42-1c-2.41-3.91-3.48-6.88-3.48-10.08,0-9.54,9-16.56,20.79-16.56,6.43,0,11.34,2.64,11.34,7.16,0,8.15-12.44,15.06-24,21.07l-.45,1a89.82,89.82,0,0,0,10.58,13.6,94.63,94.63,0,0,0,12.78-11.89h-.16l-11.14-1.1.85-3.33h22l-1.25,4.43h-7c-2.5,4.68-7.87,10.62-12.93,14.91,4.23,3.91,5.23,4.46,6.93,4.46Zm-27.3.58c4.55,0,8.54-2.07,13.68-5.7-3.82-4.77-8.19-11.91-9.59-15.59-8.24,5.42-12.28,9.75-12.28,14.59,0,3.32,2.69,6.7,8.19,6.7ZM663,515.69a27.63,27.63,0,0,0,1.2,6.38c9.41-4.94,18.91-11,18.91-16.65,0-2-1.84-3-5.26-3C668.81,502.45,663,508.26,663,515.69Z"/>
      <path class="cls-1" d="M774.65,497.88,768,516.23h-4l2.88-11.34a22.16,22.16,0,0,0-11.35-3.3c-7.31,0-13.11,3.6-13.11,9.25,0,3.48,2.75,6,9.74,11.14,8.15,6,11.76,9.86,11.76,15.62,0,8.15-6.5,14.2-17.8,14.2-10.45,0-20.09-5.76-24.73-12.51l4.41-11.86h3.95l-2.69,10.73a26,26,0,0,0,19.08,9c7.23,0,12.14-3.49,12.14-8.79,0-4-2.69-6.59-9.83-12.17-7.3-5.7-11.68-9.23-11.68-14.45,0-8.06,7.64-14.76,17.88-14.76a24,24,0,0,1,13.77,4.19l1.93-3.25Z"/>
      <path class="cls-1" d="M781.66,542.27c-1,2.72-.08,4.34,2,4.34,2.57,0,7.48-4.42,13.19-11.74l1.53,1.21c-5.55,9.41-11.75,15.84-16.89,15.84-4.75,0-6.88-5-5.47-8.92l10.07-28.24h-8.63l.81-3.13,9.23-.83,6-16.95,5.79,1.53-6.79,15.36h11.13l-1,4H791.94Z"/>
      <path class="cls-1" d="M851.77,536.08c-6.52,10.46-12.31,15.85-16.49,15.85-3.46,0-5.6-3-4.37-6.13l9.43-24.2-.94-.31c-15.25,25.14-20.11,30.64-25.92,30.64-4.82,0-9.49-3.95-9.49-9,0-13.35,15.52-33.14,30.16-33.14a10.49,10.49,0,0,1,8.26,3.35l2.36-3.11,4.91.89-3.87,8.44-9.17,22.85c-1.19,3-.56,4.42.89,4.42,2.09,0,7.56-5.55,12.71-11.75Zm-36.28,10.7c5.46,0,12.5-10.72,25.14-30.7a12.43,12.43,0,0,0-6.72-2.28c-11,0-24,17.46-24,28.23,0,2.17,1.85,4.75,5.63,4.75Z"/>
      <path class="cls-1" d="M894.66,509.54c3,0,4.89,1.61,4.82,4a4.49,4.49,0,0,1-4.58,4.66c-2.09,0-4-1-5.71-1-3.36,0-13,13.18-23.38,30.81l-1.31,3.85-6-1,12.46-31.37c1-2.41.89-4.5-.72-4.5-2.09,0-8,5.63-12.71,11.82L856,525.7c6.6-10.45,12.39-15.92,16.49-15.92a4.63,4.63,0,0,1,4.59,6.27l-9.66,24.13,1,.4c12.39-21.07,20.75-31,26.3-31Z"/>
      <path class="cls-1" d="M906.32,542.27c-1,2.72-.08,4.34,2,4.34,2.57,0,7.48-4.42,13.19-11.74l1.53,1.21c-5.55,9.41-11.74,15.84-16.89,15.84-4.75,0-6.88-5-5.47-8.92l10.07-28.24h-8.62l.8-3.13,9.24-.83,6-16.95,5.79,1.53-6.79,15.36h11.14l-1.05,4h-10.7Z"/>
      <path class="cls-1" d="M978.29,536.16c-6.83,10.78-12.38,15.76-16.65,15.76a4.42,4.42,0,0,1-4.26-6.11l9.49-24.21-1-.32c-12.63,20.59-20.35,30.64-26.79,30.64-5.22,0-7.88-5.39-5.3-10.2l12.28-22.93c1-1.85.1-4-1.91-4-2.65,0-7.48,4.9-13.27,12.46l-1.53-1.2c5.71-10.22,12.39-16.25,17.13-16.25a5.57,5.57,0,0,1,5,8.06l-11.15,22.59c-2.14,4.34-1.27,6.35,1.55,6.35,3.88,0,13-11.54,26.08-31.93l1.67-5.07,6.19,1-12.71,31.44c-1.17,2.91-.56,4.43.8,4.43,2.18,0,8-5.39,12.79-11.75Z"/>
      <path class="cls-1" d="M1021.19,520.72c0,12.8-13.2,30-31.59,31.16l-5.07,13.24,7.38,3.29-1,3.14-20.19-7.24,1.37-3.94,7.17,2.61,16.57-42.71a70.19,70.19,0,0,0-11.11,8.57l-1.45-1.13a71.25,71.25,0,0,1,14.65-12.83l7.79-20.06,5.47,1.05-6.73,15.48a17.35,17.35,0,0,1,6.48-1.57c6.12,0,10.3,4.91,10.3,10.94Zm-13-6a14.8,14.8,0,0,0-5.15,1.55l-12.53,32.24c13.49-1.21,25-15.95,25-26.47,0-3.38-2.09-7.32-7.32-7.32Z"/>
      <path class="cls-1" d="M1048.79,509.78c6.51,0,12.55,3.54,12.55,8.2a4.25,4.25,0,0,1-4.35,4.43c-2,0-3.94-1.13-3.94-3.46a4,4,0,0,1,2.37-3.44,17.78,17.78,0,0,0-7.44-2.35c-4.18,0-7.47,2.81-7.47,6.6,0,2.57,2.33,4.82,7,8.84,3.62,3.13,8.53,7.8,8.53,12.55,0,6.19-5.63,10.77-12.79,10.77-9.65,0-19.71-7.31-19.71-14.95,0-2.18,1-4.11,3.22-4.11,2.74,0,3.14,3.46,3.47,6.43.39,3.54,5.94,9,13.58,9,4.34,0,7-2.73,7-6.67,0-3.14-3.78-6.5-7.23-9.58-4.11-3.67-8-7.47-8-11.57,0-6.76,7.4-10.7,13.27-10.7Z"/>
    </g>
    <g>
      <path class="cls-1" d="M305.92,264,450,133.26H565.2L422,261.82,576,443H468.57L361.15,316.17,305.92,365.8V443H221.37V133.26h84.55Z"/>
      <path class="cls-1" d="M758.36,443H673.81V133.26h84.55Z"/>
      <path class="cls-1" d="M1207.16,133.26v71.62H988.87V251h193.7v69.87H988.87v50.48h218.29V443H906V133.26Z"/>
      <path class="cls-1" d="M1656.07,443H1332.94V380l198-175.15h-196.3V133.26h319.25v62.56L1456.33,371.39h199.74Z"/>
    </g>
    <circle class="cls-1" cx="1694.44" cy="288.14" r="31.18"/>
  </g>
</svg>
